<svg width="31" height="28" viewBox="0 0 31 28" fill="none" xmlns="http://www.w3.org/2000/svg">
<g filter="url(#filter0_d_25_2030)">
<path fill-rule="evenodd" clip-rule="evenodd" d="M9.80524 0.475517C7.13054 1.7938 6.56168 5.81707 8.65707 8.59361C9.36079 9.52587 9.63154 9.69351 10.5532 9.76611C12.4324 9.91414 13.4668 8.6921 14.0285 5.66094C14.4091 3.60742 14.0107 1.94969 12.8737 0.855995C11.9774 -0.00604679 11.0225 -0.124485 9.80524 0.475517ZM17.9186 1.12271C17.1905 1.42801 16.6737 1.93218 16.078 2.91829C15.3374 4.1437 15.2551 4.46784 15.3012 5.96921C15.4345 10.3011 18.0552 12.3099 20.6185 10.0448C22.4623 8.41584 23.2012 4.67308 22.0934 2.57624C21.2018 0.888771 19.7121 0.370237 17.9186 1.12271ZM2.78458 8.886C0.578785 10.8041 0.220085 13.7721 1.9368 15.8979C2.45474 16.539 3.03684 16.935 3.68789 17.0891C4.54958 17.2932 4.7778 17.225 5.64293 16.5046C6.65657 15.6605 7.63481 13.66 7.75019 12.1953C7.84066 11.0468 6.96943 9.12427 6.07071 8.48906C4.83929 7.61884 4.14547 7.70269 2.78458 8.886ZM24.2338 9.60586C22.7623 9.99787 20.417 12.8026 19.9407 14.7398C19.2201 17.6702 22.1072 19.6497 24.5839 17.9235C25.6076 17.2101 26.9219 15.2361 27.243 13.9305C27.8883 11.3053 26.3192 9.05029 24.2338 9.60586ZM12.4745 13.4685C12.1101 13.5783 10.1953 15.0176 8.2194 16.6669C6.86245 17.7753 6.01146 18.2753 4.84535 19.6406C4.3896 20.6772 4.3684 22.1672 5.21676 23.0326C6.36912 24.2085 7.4349 24.3966 10.4425 23.954C12.9984 23.5782 13.0473 23.5807 15.8301 24.2449C19.9283 25.223 21.7063 24.7892 22.2899 22.6692C22.632 21.4262 22.0451 20.5219 20.2213 19.4818C18.7851 18.6629 17.986 17.7765 16.6251 15.4934C15.5613 13.7085 14.0776 12.9845 12.4745 13.4685Z" fill="#921FED"/>
</g>
<defs>
<filter id="filter0_d_25_2030" x="0.85498" y="0.101562" width="29.5347" height="27.6406" filterUnits="userSpaceOnUse" color-interpolation-filters="sRGB">
<feFlood flood-opacity="0" result="BackgroundImageFix"/>
<feColorMatrix in="SourceAlpha" type="matrix" values="0 0 0 0 0 0 0 0 0 0 0 0 0 0 0 0 0 0 127 0" result="hardAlpha"/>
<feOffset dx="3" dy="3"/>
<feComposite in2="hardAlpha" operator="out"/>
<feColorMatrix type="matrix" values="0 0 0 0 0 0 0 0 0 0 0 0 0 0 0 0 0 0 1 0"/>
<feBlend mode="normal" in2="BackgroundImageFix" result="effect1_dropShadow_25_2030"/>
<feBlend mode="normal" in="SourceGraphic" in2="effect1_dropShadow_25_2030" result="shape"/>
</filter>
</defs>
</svg>
