<svg width="21" height="20" viewBox="0 0 21 20" fill="none" xmlns="http://www.w3.org/2000/svg">
<path fill-rule="evenodd" clip-rule="evenodd" d="M7.70677 1.07637C5.68757 2.05126 5.2622 5.0348 6.84821 7.09651C7.38086 7.78876 7.58558 7.91339 8.28196 7.96825C9.70177 8.08009 10.4819 7.1748 10.9029 4.92713C11.1882 3.40439 10.8854 2.17438 10.0253 1.36192C9.34723 0.721546 8.62571 0.632658 7.70677 1.07637ZM13.8368 1.56524C13.2871 1.7909 12.8972 2.16429 12.4482 2.89507C11.8901 3.80317 11.8283 4.04351 11.8647 5.15716C11.9701 8.37038 13.9522 9.8632 15.8862 8.18593C17.2774 6.97969 17.8315 4.20439 16.9923 2.64791C16.3169 1.3953 15.1909 1.00907 13.8368 1.56524ZM2.41208 7.30699C0.74777 8.72727 0.480018 10.9283 1.77924 12.5069C2.17123 12.9831 2.61141 13.2774 3.10343 13.3925C3.75463 13.5447 3.92696 13.4944 4.57975 12.961C5.3446 12.336 6.08145 10.8533 6.16702 9.76699C6.23412 8.9152 5.57383 7.48828 4.89419 7.01614C3.96296 6.36934 3.43889 6.43078 2.41208 7.30699ZM18.617 7.86428C17.5057 8.15345 15.737 10.2312 15.3793 11.6676C14.8381 13.8403 17.0213 15.3117 18.8905 14.034C19.6631 13.506 20.6538 12.0433 20.895 11.0753C21.3796 9.12878 20.1918 7.45448 18.617 7.86428ZM9.73747 10.7165C9.4623 10.7975 8.0173 11.863 6.52636 13.0842C5.50244 13.9049 4.86009 14.2748 3.98063 15.2862C3.63745 16.0546 3.62306 17.1597 4.2649 17.8025C5.13675 18.676 5.94211 18.8166 8.21378 18.4916C10.1443 18.2157 10.1812 18.2176 12.2842 18.7132C15.3813 19.4432 16.7241 19.1234 17.1626 17.5516C17.4197 16.63 16.9754 15.9586 15.5964 15.1852C14.5105 14.5762 13.9059 13.9179 12.8753 12.2229C12.0697 10.8979 10.948 10.3593 9.73747 10.7165Z" fill="#FFCF32"/>
</svg>
