<svg width="1408" height="73" viewBox="0 0 1408 73" fill="none" xmlns="http://www.w3.org/2000/svg">
<g filter="url(#filter0_d_25_2721)">
<path fill-rule="evenodd" clip-rule="evenodd" d="M9.80564 1.11277C7.13095 2.43106 6.56209 6.45433 8.65748 9.23086C9.36119 10.1632 9.63195 10.3308 10.5537 10.4034C12.4329 10.5514 13.4672 9.32935 14.0289 6.2982C14.4095 4.24468 14.0111 2.58695 12.8742 1.49325C11.9778 0.631211 11.0229 0.512773 9.80564 1.11277ZM17.9191 1.75997C17.191 2.06527 16.6741 2.56944 16.0784 3.55555C15.3379 4.78095 15.2555 5.1051 15.3016 6.60647C15.4349 10.9384 18.0557 12.9472 20.619 10.6821C22.4628 9.0531 23.2017 5.31034 22.0938 3.2135C21.2022 1.52603 19.7125 1.00749 17.9191 1.75997ZM2.78499 9.52325C0.579192 11.4414 0.220492 14.4094 1.9372 16.5352C2.45515 17.1763 3.03724 17.5723 3.68829 17.7265C4.54999 17.9305 4.7782 17.8623 5.64333 17.1419C6.65698 16.2978 7.63522 14.2973 7.75059 12.8326C7.84107 11.6841 6.96983 9.76153 6.07111 9.12632C4.83969 8.2561 4.14588 8.33995 2.78499 9.52325ZM24.2342 10.2432C22.7628 10.6352 20.4175 13.4399 19.9411 15.3771C19.2206 18.3074 22.1076 20.287 24.5844 18.5608C25.608 17.8474 26.9223 15.8734 27.2434 14.5678C27.8887 11.9426 26.3196 9.68755 24.2342 10.2432ZM12.475 14.1058C12.1106 14.2156 10.1958 15.6549 8.2198 17.3042C6.86286 18.4126 6.01186 18.9126 4.84576 20.2779C4.39001 21.3145 4.36881 22.8045 5.21716 23.6699C6.36953 24.8458 7.4353 25.0339 10.443 24.5913C12.9989 24.2155 13.0478 24.218 15.8305 24.8822C19.9288 25.8603 21.7067 25.4265 22.2903 23.3065C22.6324 22.0635 22.0456 21.1592 20.2217 20.1192C18.7855 19.3002 17.9864 18.4137 16.6256 16.1307C15.5617 14.3458 14.0781 13.6219 12.475 14.1058Z" fill="#DEDBE1"/>
</g>
<g filter="url(#filter1_d_25_2721)">
<path fill-rule="evenodd" clip-rule="evenodd" d="M298.805 1.11277C296.131 2.43106 295.562 6.45433 297.657 9.23086C298.361 10.1632 298.632 10.3308 299.553 10.4034C301.433 10.5514 302.467 9.32935 303.029 6.2982C303.409 4.24468 303.011 2.58695 301.874 1.49325C300.978 0.631211 300.023 0.512773 298.805 1.11277ZM306.919 1.75997C306.191 2.06527 305.674 2.56944 305.078 3.55555C304.338 4.78095 304.255 5.1051 304.301 6.60647C304.435 10.9384 307.055 12.9472 309.619 10.6821C311.463 9.0531 312.201 5.31034 311.094 3.2135C310.202 1.52603 308.712 1.00749 306.919 1.75997ZM291.785 9.52325C289.579 11.4414 289.22 14.4094 290.937 16.5352C291.455 17.1763 292.037 17.5723 292.688 17.7265C293.55 17.9305 293.778 17.8623 294.643 17.1419C295.657 16.2978 296.635 14.2973 296.75 12.8326C296.841 11.6841 295.97 9.76153 295.071 9.12632C293.84 8.2561 293.146 8.33995 291.785 9.52325ZM313.234 10.2432C311.763 10.6352 309.417 13.4399 308.941 15.3771C308.22 18.3074 311.107 20.287 313.584 18.5608C314.608 17.8474 315.922 15.8734 316.243 14.5678C316.889 11.9426 315.319 9.68755 313.234 10.2432ZM301.475 14.1058C301.11 14.2156 299.196 15.6549 297.22 17.3042C295.863 18.4126 295.012 18.9126 293.846 20.2779C293.39 21.3145 293.369 22.8045 294.217 23.6699C295.369 24.8458 296.435 25.0339 299.443 24.5913C301.999 24.2155 302.048 24.218 304.83 24.8822C308.929 25.8603 310.707 25.4265 311.29 23.3065C311.632 22.0635 311.045 21.1592 309.222 20.1192C307.785 19.3002 306.986 18.4137 305.625 16.1307C304.562 14.3458 303.078 13.6219 301.475 14.1058Z" fill="#DEDBE1"/>
</g>
<g filter="url(#filter2_d_25_2721)">
<path fill-rule="evenodd" clip-rule="evenodd" d="M587.805 1.11277C585.131 2.43106 584.562 6.45433 586.657 9.23086C587.361 10.1632 587.632 10.3308 588.553 10.4034C590.433 10.5514 591.467 9.32935 592.029 6.2982C592.409 4.24468 592.011 2.58695 590.874 1.49325C589.978 0.631211 589.023 0.512773 587.805 1.11277ZM595.919 1.75997C595.191 2.06527 594.674 2.56944 594.078 3.55555C593.338 4.78095 593.255 5.1051 593.301 6.60647C593.435 10.9384 596.055 12.9472 598.619 10.6821C600.463 9.0531 601.201 5.31034 600.094 3.2135C599.202 1.52603 597.712 1.00749 595.919 1.75997ZM580.785 9.52325C578.579 11.4414 578.22 14.4094 579.937 16.5352C580.455 17.1763 581.037 17.5723 581.688 17.7265C582.55 17.9305 582.778 17.8623 583.643 17.1419C584.657 16.2978 585.635 14.2973 585.75 12.8326C585.841 11.6841 584.97 9.76153 584.071 9.12632C582.84 8.2561 582.146 8.33995 580.785 9.52325ZM602.234 10.2432C600.763 10.6352 598.417 13.4399 597.941 15.3771C597.22 18.3074 600.107 20.287 602.584 18.5608C603.608 17.8474 604.922 15.8734 605.243 14.5678C605.889 11.9426 604.319 9.68755 602.234 10.2432ZM590.475 14.1058C590.11 14.2156 588.196 15.6549 586.22 17.3042C584.863 18.4126 584.012 18.9126 582.846 20.2779C582.39 21.3145 582.369 22.8045 583.217 23.6699C584.369 24.8458 585.435 25.0339 588.443 24.5913C590.999 24.2155 591.048 24.218 593.83 24.8822C597.929 25.8603 599.707 25.4265 600.29 23.3065C600.632 22.0635 600.045 21.1592 598.222 20.1192C596.785 19.3002 595.986 18.4137 594.625 16.1307C593.562 14.3458 592.078 13.6219 590.475 14.1058Z" fill="#DEDBE1"/>
</g>
<g filter="url(#filter3_d_25_2721)">
<path fill-rule="evenodd" clip-rule="evenodd" d="M876.805 1.11277C874.131 2.43106 873.562 6.45433 875.657 9.23086C876.361 10.1632 876.632 10.3308 877.553 10.4034C879.433 10.5514 880.467 9.32935 881.029 6.2982C881.409 4.24468 881.011 2.58695 879.874 1.49325C878.978 0.631211 878.023 0.512773 876.805 1.11277ZM884.919 1.75997C884.191 2.06527 883.674 2.56944 883.078 3.55555C882.338 4.78095 882.255 5.1051 882.301 6.60647C882.435 10.9384 885.055 12.9472 887.619 10.6821C889.463 9.0531 890.201 5.31034 889.094 3.2135C888.202 1.52603 886.712 1.00749 884.919 1.75997ZM869.785 9.52325C867.579 11.4414 867.22 14.4094 868.937 16.5352C869.455 17.1763 870.037 17.5723 870.688 17.7265C871.55 17.9305 871.778 17.8623 872.643 17.1419C873.657 16.2978 874.635 14.2973 874.75 12.8326C874.841 11.6841 873.97 9.76153 873.071 9.12632C871.84 8.2561 871.146 8.33995 869.785 9.52325ZM891.234 10.2432C889.763 10.6352 887.417 13.4399 886.941 15.3771C886.22 18.3074 889.107 20.287 891.584 18.5608C892.608 17.8474 893.922 15.8734 894.243 14.5678C894.889 11.9426 893.319 9.68755 891.234 10.2432ZM879.475 14.1058C879.11 14.2156 877.196 15.6549 875.22 17.3042C873.863 18.4126 873.012 18.9126 871.846 20.2779C871.39 21.3145 871.369 22.8045 872.217 23.6699C873.369 24.8458 874.435 25.0339 877.443 24.5913C879.999 24.2155 880.048 24.218 882.83 24.8822C886.929 25.8603 888.707 25.4265 889.29 23.3065C889.632 22.0635 889.045 21.1592 887.222 20.1192C885.785 19.3002 884.986 18.4137 883.625 16.1307C882.562 14.3458 881.078 13.6219 879.475 14.1058Z" fill="#DEDBE1"/>
</g>
<g filter="url(#filter4_d_25_2721)">
<path fill-rule="evenodd" clip-rule="evenodd" d="M1165.81 1.11277C1163.13 2.43106 1162.56 6.45433 1164.66 9.23086C1165.36 10.1632 1165.63 10.3308 1166.55 10.4034C1168.43 10.5514 1169.47 9.32935 1170.03 6.2982C1170.41 4.24468 1170.01 2.58695 1168.87 1.49325C1167.98 0.631211 1167.02 0.512773 1165.81 1.11277ZM1173.92 1.75997C1173.19 2.06527 1172.67 2.56944 1172.08 3.55555C1171.34 4.78095 1171.26 5.1051 1171.3 6.60647C1171.43 10.9384 1174.06 12.9472 1176.62 10.6821C1178.46 9.0531 1179.2 5.31034 1178.09 3.2135C1177.2 1.52603 1175.71 1.00749 1173.92 1.75997ZM1158.78 9.52325C1156.58 11.4414 1156.22 14.4094 1157.94 16.5352C1158.45 17.1763 1159.04 17.5723 1159.69 17.7265C1160.55 17.9305 1160.78 17.8623 1161.64 17.1419C1162.66 16.2978 1163.64 14.2973 1163.75 12.8326C1163.84 11.6841 1162.97 9.76153 1162.07 9.12632C1160.84 8.2561 1160.15 8.33995 1158.78 9.52325ZM1180.23 10.2432C1178.76 10.6352 1176.42 13.4399 1175.94 15.3771C1175.22 18.3074 1178.11 20.287 1180.58 18.5608C1181.61 17.8474 1182.92 15.8734 1183.24 14.5678C1183.89 11.9426 1182.32 9.68755 1180.23 10.2432ZM1168.47 14.1058C1168.11 14.2156 1166.2 15.6549 1164.22 17.3042C1162.86 18.4126 1162.01 18.9126 1160.85 20.2779C1160.39 21.3145 1160.37 22.8045 1161.22 23.6699C1162.37 24.8458 1163.44 25.0339 1166.44 24.5913C1169 24.2155 1169.05 24.218 1171.83 24.8822C1175.93 25.8603 1177.71 25.4265 1178.29 23.3065C1178.63 22.0635 1178.05 21.1592 1176.22 20.1192C1174.79 19.3002 1173.99 18.4137 1172.63 16.1307C1171.56 14.3458 1170.08 13.6219 1168.47 14.1058Z" fill="#DEDBE1"/>
</g>
<g filter="url(#filter5_d_25_2721)">
<path fill-rule="evenodd" clip-rule="evenodd" d="M110.805 14.1128C108.131 15.4311 107.562 19.4544 109.657 22.2309C110.361 23.1632 110.632 23.3308 111.553 23.4034C113.433 23.5514 114.467 22.3294 115.029 19.2982C115.409 17.2447 115.011 15.587 113.874 14.4933C112.978 13.6313 112.023 13.5128 110.805 14.1128ZM118.919 14.76C118.191 15.0653 117.674 15.5695 117.078 16.5556C116.338 17.781 116.255 18.1051 116.301 19.6065C116.435 23.9384 119.055 25.9472 121.619 23.6821C123.463 22.0531 124.201 18.3104 123.094 16.2135C122.202 14.5261 120.712 14.0075 118.919 14.76ZM103.785 22.5233C101.579 24.4414 101.22 27.4094 102.937 29.5352C103.455 30.1763 104.037 30.5723 104.688 30.7265C105.55 30.9305 105.778 30.8623 106.643 30.1419C107.657 29.2978 108.635 27.2973 108.75 25.8326C108.841 24.6841 107.97 22.7616 107.071 22.1264C105.84 21.2562 105.146 21.34 103.785 22.5233ZM125.234 23.2432C123.763 23.6352 121.417 26.4399 120.941 28.3771C120.22 31.3075 123.107 33.287 125.584 31.5608C126.608 30.8474 127.922 28.8734 128.243 27.5678C128.889 24.9426 127.319 22.6876 125.234 23.2432ZM113.475 27.1058C113.11 27.2156 111.196 28.6549 109.22 30.3042C107.863 31.4126 107.012 31.9126 105.846 33.2779C105.39 34.3145 105.369 35.8045 106.217 36.6699C107.369 37.8458 108.435 38.0339 111.443 37.5913C113.999 37.2155 114.048 37.218 116.83 37.8822C120.929 38.8603 122.707 38.4265 123.29 36.3065C123.632 35.0635 123.045 34.1591 121.222 33.1192C119.785 32.3001 118.986 31.4138 117.625 29.1307C116.562 27.3458 115.078 26.6219 113.475 27.1058Z" fill="#DEDBE1"/>
</g>
<g filter="url(#filter6_d_25_2721)">
<path fill-rule="evenodd" clip-rule="evenodd" d="M399.805 14.1128C397.131 15.4311 396.562 19.4544 398.657 22.2309C399.361 23.1632 399.632 23.3308 400.553 23.4034C402.433 23.5514 403.467 22.3294 404.029 19.2982C404.409 17.2447 404.011 15.587 402.874 14.4933C401.978 13.6313 401.023 13.5128 399.805 14.1128ZM407.919 14.76C407.191 15.0653 406.674 15.5695 406.078 16.5556C405.338 17.781 405.255 18.1051 405.301 19.6065C405.435 23.9384 408.055 25.9472 410.619 23.6821C412.463 22.0531 413.201 18.3104 412.094 16.2135C411.202 14.5261 409.712 14.0075 407.919 14.76ZM392.785 22.5233C390.579 24.4414 390.22 27.4094 391.937 29.5352C392.455 30.1763 393.037 30.5723 393.688 30.7265C394.55 30.9305 394.778 30.8623 395.643 30.1419C396.657 29.2978 397.635 27.2973 397.75 25.8326C397.841 24.6841 396.97 22.7616 396.071 22.1264C394.84 21.2562 394.146 21.34 392.785 22.5233ZM414.234 23.2432C412.763 23.6352 410.417 26.4399 409.941 28.3771C409.22 31.3075 412.107 33.287 414.584 31.5608C415.608 30.8474 416.922 28.8734 417.243 27.5678C417.889 24.9426 416.319 22.6876 414.234 23.2432ZM402.475 27.1058C402.11 27.2156 400.196 28.6549 398.22 30.3042C396.863 31.4126 396.012 31.9126 394.846 33.2779C394.39 34.3145 394.369 35.8045 395.217 36.6699C396.369 37.8458 397.435 38.0339 400.443 37.5913C402.999 37.2155 403.048 37.218 405.83 37.8822C409.929 38.8603 411.707 38.4265 412.29 36.3065C412.632 35.0635 412.045 34.1591 410.222 33.1192C408.785 32.3001 407.986 31.4138 406.625 29.1307C405.562 27.3458 404.078 26.6219 402.475 27.1058Z" fill="#DEDBE1"/>
</g>
<g filter="url(#filter7_d_25_2721)">
<path fill-rule="evenodd" clip-rule="evenodd" d="M688.805 14.1128C686.131 15.4311 685.562 19.4544 687.657 22.2309C688.361 23.1632 688.632 23.3308 689.553 23.4034C691.433 23.5514 692.467 22.3294 693.029 19.2982C693.409 17.2447 693.011 15.587 691.874 14.4933C690.978 13.6313 690.023 13.5128 688.805 14.1128ZM696.919 14.76C696.191 15.0653 695.674 15.5695 695.078 16.5556C694.338 17.781 694.255 18.1051 694.301 19.6065C694.435 23.9384 697.055 25.9472 699.619 23.6821C701.463 22.0531 702.201 18.3104 701.094 16.2135C700.202 14.5261 698.712 14.0075 696.919 14.76ZM681.785 22.5233C679.579 24.4414 679.22 27.4094 680.937 29.5352C681.455 30.1763 682.037 30.5723 682.688 30.7265C683.55 30.9305 683.778 30.8623 684.643 30.1419C685.657 29.2978 686.635 27.2973 686.75 25.8326C686.841 24.6841 685.97 22.7616 685.071 22.1264C683.84 21.2562 683.146 21.34 681.785 22.5233ZM703.234 23.2432C701.763 23.6352 699.417 26.4399 698.941 28.3771C698.22 31.3075 701.107 33.287 703.584 31.5608C704.608 30.8474 705.922 28.8734 706.243 27.5678C706.889 24.9426 705.319 22.6876 703.234 23.2432ZM691.475 27.1058C691.11 27.2156 689.196 28.6549 687.22 30.3042C685.863 31.4126 685.012 31.9126 683.846 33.2779C683.39 34.3145 683.369 35.8045 684.217 36.6699C685.369 37.8458 686.435 38.0339 689.443 37.5913C691.999 37.2155 692.048 37.218 694.83 37.8822C698.929 38.8603 700.707 38.4265 701.29 36.3065C701.632 35.0635 701.045 34.1591 699.222 33.1192C697.785 32.3001 696.986 31.4138 695.625 29.1307C694.562 27.3458 693.078 26.6219 691.475 27.1058Z" fill="#DEDBE1"/>
</g>
<g filter="url(#filter8_d_25_2721)">
<path fill-rule="evenodd" clip-rule="evenodd" d="M977.805 14.1128C975.131 15.4311 974.562 19.4544 976.657 22.2309C977.361 23.1632 977.632 23.3308 978.553 23.4034C980.433 23.5514 981.467 22.3294 982.029 19.2982C982.409 17.2447 982.011 15.587 980.874 14.4933C979.978 13.6313 979.023 13.5128 977.805 14.1128ZM985.919 14.76C985.191 15.0653 984.674 15.5695 984.078 16.5556C983.338 17.781 983.255 18.1051 983.301 19.6065C983.435 23.9384 986.055 25.9472 988.619 23.6821C990.463 22.0531 991.201 18.3104 990.094 16.2135C989.202 14.5261 987.712 14.0075 985.919 14.76ZM970.785 22.5233C968.579 24.4414 968.22 27.4094 969.937 29.5352C970.455 30.1763 971.037 30.5723 971.688 30.7265C972.55 30.9305 972.778 30.8623 973.643 30.1419C974.657 29.2978 975.635 27.2973 975.75 25.8326C975.841 24.6841 974.97 22.7616 974.071 22.1264C972.84 21.2562 972.146 21.34 970.785 22.5233ZM992.234 23.2432C990.763 23.6352 988.417 26.4399 987.941 28.3771C987.22 31.3075 990.107 33.287 992.584 31.5608C993.608 30.8474 994.922 28.8734 995.243 27.5678C995.889 24.9426 994.319 22.6876 992.234 23.2432ZM980.475 27.1058C980.11 27.2156 978.196 28.6549 976.22 30.3042C974.863 31.4126 974.012 31.9126 972.846 33.2779C972.39 34.3145 972.369 35.8045 973.217 36.6699C974.369 37.8458 975.435 38.0339 978.443 37.5913C980.999 37.2155 981.048 37.218 983.83 37.8822C987.929 38.8603 989.707 38.4265 990.29 36.3065C990.632 35.0635 990.045 34.1591 988.222 33.1192C986.785 32.3001 985.986 31.4138 984.625 29.1307C983.562 27.3458 982.078 26.6219 980.475 27.1058Z" fill="#DEDBE1"/>
</g>
<g filter="url(#filter9_d_25_2721)">
<path fill-rule="evenodd" clip-rule="evenodd" d="M1266.81 14.1128C1264.13 15.4311 1263.56 19.4544 1265.66 22.2309C1266.36 23.1632 1266.63 23.3308 1267.55 23.4034C1269.43 23.5514 1270.47 22.3294 1271.03 19.2982C1271.41 17.2447 1271.01 15.587 1269.87 14.4933C1268.98 13.6313 1268.02 13.5128 1266.81 14.1128ZM1274.92 14.76C1274.19 15.0653 1273.67 15.5695 1273.08 16.5556C1272.34 17.781 1272.26 18.1051 1272.3 19.6065C1272.43 23.9384 1275.06 25.9472 1277.62 23.6821C1279.46 22.0531 1280.2 18.3104 1279.09 16.2135C1278.2 14.5261 1276.71 14.0075 1274.92 14.76ZM1259.78 22.5233C1257.58 24.4414 1257.22 27.4094 1258.94 29.5352C1259.45 30.1763 1260.04 30.5723 1260.69 30.7265C1261.55 30.9305 1261.78 30.8623 1262.64 30.1419C1263.66 29.2978 1264.64 27.2973 1264.75 25.8326C1264.84 24.6841 1263.97 22.7616 1263.07 22.1264C1261.84 21.2562 1261.15 21.34 1259.78 22.5233ZM1281.23 23.2432C1279.76 23.6352 1277.42 26.4399 1276.94 28.3771C1276.22 31.3075 1279.11 33.287 1281.58 31.5608C1282.61 30.8474 1283.92 28.8734 1284.24 27.5678C1284.89 24.9426 1283.32 22.6876 1281.23 23.2432ZM1269.47 27.1058C1269.11 27.2156 1267.2 28.6549 1265.22 30.3042C1263.86 31.4126 1263.01 31.9126 1261.85 33.2779C1261.39 34.3145 1261.37 35.8045 1262.22 36.6699C1263.37 37.8458 1264.44 38.0339 1267.44 37.5913C1270 37.2155 1270.05 37.218 1272.83 37.8822C1276.93 38.8603 1278.71 38.4265 1279.29 36.3065C1279.63 35.0635 1279.05 34.1591 1277.22 33.1192C1275.79 32.3001 1274.99 31.4138 1273.63 29.1307C1272.56 27.3458 1271.08 26.6219 1269.47 27.1058Z" fill="#DEDBE1"/>
</g>
<g filter="url(#filter10_d_25_2721)">
<path fill-rule="evenodd" clip-rule="evenodd" d="M192.805 2.11277C190.131 3.43106 189.562 7.45433 191.657 10.2309C192.361 11.1632 192.632 11.3308 193.553 11.4034C195.433 11.5514 196.467 10.3294 197.029 7.2982C197.409 5.24468 197.011 3.58695 195.874 2.49325C194.978 1.63121 194.023 1.51277 192.805 2.11277ZM200.919 2.75997C200.191 3.06527 199.674 3.56944 199.078 4.55555C198.338 5.78095 198.255 6.1051 198.301 7.60647C198.435 11.9384 201.055 13.9472 203.619 11.6821C205.463 10.0531 206.201 6.31034 205.094 4.2135C204.202 2.52603 202.712 2.00749 200.919 2.75997ZM185.785 10.5233C183.579 12.4414 183.22 15.4094 184.937 17.5352C185.455 18.1763 186.037 18.5723 186.688 18.7265C187.55 18.9305 187.778 18.8623 188.643 18.1419C189.657 17.2978 190.635 15.2973 190.75 13.8326C190.841 12.6841 189.97 10.7616 189.071 10.1264C187.84 9.2561 187.146 9.33995 185.785 10.5233ZM207.234 11.2432C205.763 11.6352 203.417 14.4399 202.941 16.3771C202.22 19.3075 205.107 21.287 207.584 19.5608C208.608 18.8474 209.922 16.8734 210.243 15.5678C210.889 12.9426 209.319 10.6876 207.234 11.2432ZM195.475 15.1058C195.11 15.2156 193.196 16.6549 191.22 18.3042C189.863 19.4126 189.012 19.9126 187.846 21.2779C187.39 22.3145 187.369 23.8045 188.217 24.6699C189.369 25.8458 190.435 26.0339 193.443 25.5913C195.999 25.2155 196.048 25.218 198.83 25.8822C202.929 26.8603 204.707 26.4265 205.29 24.3065C205.632 23.0635 205.045 22.1592 203.222 21.1192C201.785 20.3002 200.986 19.4138 199.625 17.1307C198.562 15.3458 197.078 14.6219 195.475 15.1058Z" fill="#DEDBE1"/>
</g>
<g filter="url(#filter11_d_25_2721)">
<path fill-rule="evenodd" clip-rule="evenodd" d="M481.805 2.11277C479.131 3.43106 478.562 7.45433 480.657 10.2309C481.361 11.1632 481.632 11.3308 482.553 11.4034C484.433 11.5514 485.467 10.3294 486.029 7.2982C486.409 5.24468 486.011 3.58695 484.874 2.49325C483.978 1.63121 483.023 1.51277 481.805 2.11277ZM489.919 2.75997C489.191 3.06527 488.674 3.56944 488.078 4.55555C487.338 5.78095 487.255 6.1051 487.301 7.60647C487.435 11.9384 490.055 13.9472 492.619 11.6821C494.463 10.0531 495.201 6.31034 494.094 4.2135C493.202 2.52603 491.712 2.00749 489.919 2.75997ZM474.785 10.5233C472.579 12.4414 472.22 15.4094 473.937 17.5352C474.455 18.1763 475.037 18.5723 475.688 18.7265C476.55 18.9305 476.778 18.8623 477.643 18.1419C478.657 17.2978 479.635 15.2973 479.75 13.8326C479.841 12.6841 478.97 10.7616 478.071 10.1264C476.84 9.2561 476.146 9.33995 474.785 10.5233ZM496.234 11.2432C494.763 11.6352 492.417 14.4399 491.941 16.3771C491.22 19.3075 494.107 21.287 496.584 19.5608C497.608 18.8474 498.922 16.8734 499.243 15.5678C499.889 12.9426 498.319 10.6876 496.234 11.2432ZM484.475 15.1058C484.11 15.2156 482.196 16.6549 480.22 18.3042C478.863 19.4126 478.012 19.9126 476.846 21.2779C476.39 22.3145 476.369 23.8045 477.217 24.6699C478.369 25.8458 479.435 26.0339 482.443 25.5913C484.999 25.2155 485.048 25.218 487.83 25.8822C491.929 26.8603 493.707 26.4265 494.29 24.3065C494.632 23.0635 494.045 22.1592 492.222 21.1192C490.785 20.3002 489.986 19.4138 488.625 17.1307C487.562 15.3458 486.078 14.6219 484.475 15.1058Z" fill="#DEDBE1"/>
</g>
<g filter="url(#filter12_d_25_2721)">
<path fill-rule="evenodd" clip-rule="evenodd" d="M770.805 2.11277C768.131 3.43106 767.562 7.45433 769.657 10.2309C770.361 11.1632 770.632 11.3308 771.553 11.4034C773.433 11.5514 774.467 10.3294 775.029 7.2982C775.409 5.24468 775.011 3.58695 773.874 2.49325C772.978 1.63121 772.023 1.51277 770.805 2.11277ZM778.919 2.75997C778.191 3.06527 777.674 3.56944 777.078 4.55555C776.338 5.78095 776.255 6.1051 776.301 7.60647C776.435 11.9384 779.055 13.9472 781.619 11.6821C783.463 10.0531 784.201 6.31034 783.094 4.2135C782.202 2.52603 780.712 2.00749 778.919 2.75997ZM763.785 10.5233C761.579 12.4414 761.22 15.4094 762.937 17.5352C763.455 18.1763 764.037 18.5723 764.688 18.7265C765.55 18.9305 765.778 18.8623 766.643 18.1419C767.657 17.2978 768.635 15.2973 768.75 13.8326C768.841 12.6841 767.97 10.7616 767.071 10.1264C765.84 9.2561 765.146 9.33995 763.785 10.5233ZM785.234 11.2432C783.763 11.6352 781.417 14.4399 780.941 16.3771C780.22 19.3075 783.107 21.287 785.584 19.5608C786.608 18.8474 787.922 16.8734 788.243 15.5678C788.889 12.9426 787.319 10.6876 785.234 11.2432ZM773.475 15.1058C773.11 15.2156 771.196 16.6549 769.22 18.3042C767.863 19.4126 767.012 19.9126 765.846 21.2779C765.39 22.3145 765.369 23.8045 766.217 24.6699C767.369 25.8458 768.435 26.0339 771.443 25.5913C773.999 25.2155 774.048 25.218 776.83 25.8822C780.929 26.8603 782.707 26.4265 783.29 24.3065C783.632 23.0635 783.045 22.1592 781.222 21.1192C779.785 20.3002 778.986 19.4138 777.625 17.1307C776.562 15.3458 775.078 14.6219 773.475 15.1058Z" fill="#DEDBE1"/>
</g>
<g filter="url(#filter13_d_25_2721)">
<path fill-rule="evenodd" clip-rule="evenodd" d="M1059.81 2.11277C1057.13 3.43106 1056.56 7.45433 1058.66 10.2309C1059.36 11.1632 1059.63 11.3308 1060.55 11.4034C1062.43 11.5514 1063.47 10.3294 1064.03 7.2982C1064.41 5.24468 1064.01 3.58695 1062.87 2.49325C1061.98 1.63121 1061.02 1.51277 1059.81 2.11277ZM1067.92 2.75997C1067.19 3.06527 1066.67 3.56944 1066.08 4.55555C1065.34 5.78095 1065.26 6.1051 1065.3 7.60647C1065.43 11.9384 1068.06 13.9472 1070.62 11.6821C1072.46 10.0531 1073.2 6.31034 1072.09 4.2135C1071.2 2.52603 1069.71 2.00749 1067.92 2.75997ZM1052.78 10.5233C1050.58 12.4414 1050.22 15.4094 1051.94 17.5352C1052.45 18.1763 1053.04 18.5723 1053.69 18.7265C1054.55 18.9305 1054.78 18.8623 1055.64 18.1419C1056.66 17.2978 1057.64 15.2973 1057.75 13.8326C1057.84 12.6841 1056.97 10.7616 1056.07 10.1264C1054.84 9.2561 1054.15 9.33995 1052.78 10.5233ZM1074.23 11.2432C1072.76 11.6352 1070.42 14.4399 1069.94 16.3771C1069.22 19.3075 1072.11 21.287 1074.58 19.5608C1075.61 18.8474 1076.92 16.8734 1077.24 15.5678C1077.89 12.9426 1076.32 10.6876 1074.23 11.2432ZM1062.47 15.1058C1062.11 15.2156 1060.2 16.6549 1058.22 18.3042C1056.86 19.4126 1056.01 19.9126 1054.85 21.2779C1054.39 22.3145 1054.37 23.8045 1055.22 24.6699C1056.37 25.8458 1057.44 26.0339 1060.44 25.5913C1063 25.2155 1063.05 25.218 1065.83 25.8822C1069.93 26.8603 1071.71 26.4265 1072.29 24.3065C1072.63 23.0635 1072.05 22.1592 1070.22 21.1192C1068.79 20.3002 1067.99 19.4138 1066.63 17.1307C1065.56 15.3458 1064.08 14.6219 1062.47 15.1058Z" fill="#DEDBE1"/>
</g>
<g filter="url(#filter14_d_25_2721)">
<path fill-rule="evenodd" clip-rule="evenodd" d="M1348.81 2.11277C1346.13 3.43106 1345.56 7.45433 1347.66 10.2309C1348.36 11.1632 1348.63 11.3308 1349.55 11.4034C1351.43 11.5514 1352.47 10.3294 1353.03 7.2982C1353.41 5.24468 1353.01 3.58695 1351.87 2.49325C1350.98 1.63121 1350.02 1.51277 1348.81 2.11277ZM1356.92 2.75997C1356.19 3.06527 1355.67 3.56944 1355.08 4.55555C1354.34 5.78095 1354.26 6.1051 1354.3 7.60647C1354.43 11.9384 1357.06 13.9472 1359.62 11.6821C1361.46 10.0531 1362.2 6.31034 1361.09 4.2135C1360.2 2.52603 1358.71 2.00749 1356.92 2.75997ZM1341.78 10.5233C1339.58 12.4414 1339.22 15.4094 1340.94 17.5352C1341.45 18.1763 1342.04 18.5723 1342.69 18.7265C1343.55 18.9305 1343.78 18.8623 1344.64 18.1419C1345.66 17.2978 1346.64 15.2973 1346.75 13.8326C1346.84 12.6841 1345.97 10.7616 1345.07 10.1264C1343.84 9.2561 1343.15 9.33995 1341.78 10.5233ZM1363.23 11.2432C1361.76 11.6352 1359.42 14.4399 1358.94 16.3771C1358.22 19.3075 1361.11 21.287 1363.58 19.5608C1364.61 18.8474 1365.92 16.8734 1366.24 15.5678C1366.89 12.9426 1365.32 10.6876 1363.23 11.2432ZM1351.47 15.1058C1351.11 15.2156 1349.2 16.6549 1347.22 18.3042C1345.86 19.4126 1345.01 19.9126 1343.85 21.2779C1343.39 22.3145 1343.37 23.8045 1344.22 24.6699C1345.37 25.8458 1346.44 26.0339 1349.44 25.5913C1352 25.2155 1352.05 25.218 1354.83 25.8822C1358.93 26.8603 1360.71 26.4265 1361.29 24.3065C1361.63 23.0635 1361.05 22.1592 1359.22 21.1192C1357.79 20.3002 1356.99 19.4138 1355.63 17.1307C1354.56 15.3458 1353.08 14.6219 1351.47 15.1058Z" fill="#DEDBE1"/>
</g>
<g filter="url(#filter15_d_25_2721)">
<path fill-rule="evenodd" clip-rule="evenodd" d="M59.3211 32.969C56.6553 31.6328 53.1047 33.6084 52.1565 36.9551C51.8382 38.079 51.868 38.396 52.3666 39.1746C53.3832 40.762 54.9819 40.8487 57.7373 39.4664C59.6041 38.5299 60.6851 37.2115 60.8705 35.6448C61.0165 34.4098 60.5343 33.5771 59.3211 32.969ZM63.7038 39.8274C63.0208 39.4314 62.3068 39.3237 61.1611 39.4442C59.7371 39.5938 59.429 39.7238 58.26 40.6671C54.8873 43.3887 54.8683 46.6908 58.2215 47.3665C60.6333 47.8528 64.063 46.1821 65.0657 44.033C65.8725 42.3034 65.3864 40.8028 63.7038 39.8274ZM48.3778 32.4503C45.517 31.85 42.9344 33.3561 42.2763 36.008C42.0779 36.808 42.1137 37.5112 42.3839 38.1232C42.7415 38.9333 42.9337 39.0741 44.0303 39.3287C45.3152 39.6271 47.5005 39.1991 48.7378 38.4068C49.708 37.7855 50.7145 35.9302 50.6782 34.8303C50.6285 33.3232 50.1427 32.8208 48.3778 32.4503ZM60.7542 49.9835C59.5533 49.0471 55.9014 48.871 54.0696 49.6608C51.2986 50.8557 51.4637 54.3523 54.3351 55.2845C55.5219 55.6697 57.889 55.5256 59.1236 54.9934C61.6059 53.9228 62.4562 51.3104 60.7542 49.9835ZM50.5752 42.9416C50.2677 42.7174 47.9642 42.06 45.4565 41.4806C43.7536 41.0681 42.8412 40.6916 41.0488 40.5864C39.9473 40.8489 38.7467 41.7316 38.5691 42.9304C38.3275 44.559 38.821 45.5222 40.9897 47.6525C42.8325 49.4631 42.86 49.5036 44.0107 52.1229C45.7054 55.9804 47.1246 57.1358 49.167 56.321C50.3644 55.8433 50.7309 54.8295 50.4588 52.7476C50.2445 51.1083 50.4686 49.9361 51.467 47.4728C52.2476 45.5471 51.9289 43.9273 50.5752 42.9416Z" fill="#DEDBE1"/>
</g>
<g filter="url(#filter16_d_25_2721)">
<path fill-rule="evenodd" clip-rule="evenodd" d="M348.321 32.969C345.655 31.6328 342.105 33.6084 341.156 36.9551C340.838 38.079 340.868 38.396 341.367 39.1746C342.383 40.762 343.982 40.8487 346.737 39.4664C348.604 38.5299 349.685 37.2115 349.87 35.6448C350.016 34.4098 349.534 33.5771 348.321 32.969ZM352.704 39.8274C352.021 39.4314 351.307 39.3237 350.161 39.4442C348.737 39.5938 348.429 39.7238 347.26 40.6671C343.887 43.3887 343.868 46.6908 347.221 47.3665C349.633 47.8528 353.063 46.1821 354.066 44.033C354.872 42.3034 354.386 40.8028 352.704 39.8274ZM337.378 32.4503C334.517 31.85 331.934 33.3561 331.276 36.008C331.078 36.808 331.114 37.5112 331.384 38.1232C331.741 38.9333 331.934 39.0741 333.03 39.3287C334.315 39.6271 336.5 39.1991 337.738 38.4068C338.708 37.7855 339.714 35.9302 339.678 34.8303C339.628 33.3232 339.143 32.8208 337.378 32.4503ZM349.754 49.9835C348.553 49.0471 344.901 48.871 343.07 49.6608C340.298 50.8557 340.464 54.3523 343.335 55.2845C344.522 55.6697 346.889 55.5256 348.124 54.9934C350.606 53.9228 351.456 51.3104 349.754 49.9835ZM339.575 42.9416C339.268 42.7174 336.964 42.06 334.456 41.4806C332.754 41.0681 331.841 40.6916 330.049 40.5864C328.947 40.8489 327.747 41.7316 327.569 42.9304C327.327 44.559 327.821 45.5222 329.99 47.6525C331.832 49.4631 331.86 49.5036 333.011 52.1229C334.705 55.9804 336.124 57.1358 338.167 56.321C339.364 55.8433 339.731 54.8295 339.459 52.7476C339.244 51.1083 339.469 49.9361 340.467 47.4728C341.247 45.5471 340.929 43.9273 339.575 42.9416Z" fill="#DEDBE1"/>
</g>
<g filter="url(#filter17_d_25_2721)">
<path fill-rule="evenodd" clip-rule="evenodd" d="M637.321 32.969C634.655 31.6328 631.104 33.6084 630.156 36.9551C629.838 38.079 629.868 38.396 630.366 39.1746C631.383 40.762 632.982 40.8487 635.737 39.4664C637.604 38.5299 638.685 37.2115 638.87 35.6448C639.016 34.4098 638.534 33.5771 637.321 32.969ZM641.704 39.8274C641.021 39.4314 640.307 39.3237 639.161 39.4442C637.737 39.5938 637.429 39.7238 636.26 40.6671C632.887 43.3887 632.868 46.6908 636.221 47.3665C638.633 47.8528 642.063 46.1821 643.065 44.033C643.872 42.3034 643.386 40.8028 641.704 39.8274ZM626.378 32.4503C623.517 31.85 620.934 33.3561 620.276 36.008C620.078 36.808 620.113 37.5112 620.384 38.1232C620.741 38.9333 620.933 39.0741 622.03 39.3287C623.315 39.6271 625.5 39.1991 626.738 38.4068C627.708 37.7855 628.714 35.9302 628.678 34.8303C628.628 33.3232 628.142 32.8208 626.378 32.4503ZM638.754 49.9835C637.553 49.0471 633.901 48.871 632.069 49.6608C629.298 50.8557 629.463 54.3523 632.335 55.2845C633.522 55.6697 635.889 55.5256 637.123 54.9934C639.606 53.9228 640.456 51.3104 638.754 49.9835ZM628.575 42.9416C628.267 42.7174 625.964 42.06 623.456 41.4806C621.753 41.0681 620.841 40.6916 619.049 40.5864C617.947 40.8489 616.747 41.7316 616.569 42.9304C616.327 44.559 616.821 45.5222 618.989 47.6525C620.832 49.4631 620.86 49.5036 622.01 52.1229C623.705 55.9804 625.124 57.1358 627.167 56.321C628.364 55.8433 628.731 54.8295 628.459 52.7476C628.244 51.1083 628.468 49.9361 629.467 47.4728C630.247 45.5471 629.929 43.9273 628.575 42.9416Z" fill="#DEDBE1"/>
</g>
<g filter="url(#filter18_d_25_2721)">
<path fill-rule="evenodd" clip-rule="evenodd" d="M926.321 32.969C923.655 31.6328 920.104 33.6084 919.156 36.9551C918.838 38.079 918.868 38.396 919.366 39.1746C920.383 40.762 921.982 40.8487 924.737 39.4664C926.604 38.5299 927.685 37.2115 927.87 35.6448C928.016 34.4098 927.534 33.5771 926.321 32.969ZM930.704 39.8274C930.021 39.4314 929.307 39.3237 928.161 39.4442C926.737 39.5938 926.429 39.7238 925.26 40.6671C921.887 43.3887 921.868 46.6908 925.221 47.3665C927.633 47.8528 931.063 46.1821 932.065 44.033C932.872 42.3034 932.386 40.8028 930.704 39.8274ZM915.378 32.4503C912.517 31.85 909.934 33.3561 909.276 36.008C909.078 36.808 909.113 37.5112 909.384 38.1232C909.741 38.9333 909.933 39.0741 911.03 39.3287C912.315 39.6271 914.5 39.1991 915.738 38.4068C916.708 37.7855 917.714 35.9302 917.678 34.8303C917.628 33.3232 917.142 32.8208 915.378 32.4503ZM927.754 49.9835C926.553 49.0471 922.901 48.871 921.069 49.6608C918.298 50.8557 918.463 54.3523 921.335 55.2845C922.522 55.6697 924.889 55.5256 926.123 54.9934C928.606 53.9228 929.456 51.3104 927.754 49.9835ZM917.575 42.9416C917.267 42.7174 914.964 42.06 912.456 41.4806C910.753 41.0681 909.841 40.6916 908.049 40.5864C906.947 40.8489 905.747 41.7316 905.569 42.9304C905.327 44.559 905.821 45.5222 907.989 47.6525C909.832 49.4631 909.86 49.5036 911.01 52.1229C912.705 55.9804 914.124 57.1358 916.167 56.321C917.364 55.8433 917.731 54.8295 917.459 52.7476C917.244 51.1083 917.468 49.9361 918.467 47.4728C919.247 45.5471 918.929 43.9273 917.575 42.9416Z" fill="#DEDBE1"/>
</g>
<g filter="url(#filter19_d_25_2721)">
<path fill-rule="evenodd" clip-rule="evenodd" d="M1215.32 32.969C1212.66 31.6328 1209.1 33.6084 1208.16 36.9551C1207.84 38.079 1207.87 38.396 1208.37 39.1746C1209.38 40.762 1210.98 40.8487 1213.74 39.4664C1215.6 38.5299 1216.68 37.2115 1216.87 35.6448C1217.02 34.4098 1216.53 33.5771 1215.32 32.969ZM1219.7 39.8274C1219.02 39.4314 1218.31 39.3237 1217.16 39.4442C1215.74 39.5938 1215.43 39.7238 1214.26 40.6671C1210.89 43.3887 1210.87 46.6908 1214.22 47.3665C1216.63 47.8528 1220.06 46.1821 1221.07 44.033C1221.87 42.3034 1221.39 40.8028 1219.7 39.8274ZM1204.38 32.4503C1201.52 31.85 1198.93 33.3561 1198.28 36.008C1198.08 36.808 1198.11 37.5112 1198.38 38.1232C1198.74 38.9333 1198.93 39.0741 1200.03 39.3287C1201.31 39.6271 1203.5 39.1991 1204.74 38.4068C1205.71 37.7855 1206.71 35.9302 1206.68 34.8303C1206.63 33.3232 1206.14 32.8208 1204.38 32.4503ZM1216.75 49.9835C1215.55 49.0471 1211.9 48.871 1210.07 49.6608C1207.3 50.8557 1207.46 54.3523 1210.33 55.2845C1211.52 55.6697 1213.89 55.5256 1215.12 54.9934C1217.61 53.9228 1218.46 51.3104 1216.75 49.9835ZM1206.58 42.9416C1206.27 42.7174 1203.96 42.06 1201.46 41.4806C1199.75 41.0681 1198.84 40.6916 1197.05 40.5864C1195.95 40.8489 1194.75 41.7316 1194.57 42.9304C1194.33 44.559 1194.82 45.5222 1196.99 47.6525C1198.83 49.4631 1198.86 49.5036 1200.01 52.1229C1201.71 55.9804 1203.12 57.1358 1205.17 56.321C1206.36 55.8433 1206.73 54.8295 1206.46 52.7476C1206.24 51.1083 1206.47 49.9361 1207.47 47.4728C1208.25 45.5471 1207.93 43.9273 1206.58 42.9416Z" fill="#DEDBE1"/>
</g>
<g filter="url(#filter20_d_25_2721)">
<path fill-rule="evenodd" clip-rule="evenodd" d="M160.321 45.969C157.655 44.6328 154.105 46.6084 153.156 49.9551C152.838 51.079 152.868 51.396 153.367 52.1746C154.383 53.762 155.982 53.8487 158.737 52.4664C160.604 51.5299 161.685 50.2115 161.87 48.6448C162.016 47.4098 161.534 46.5771 160.321 45.969ZM164.704 52.8274C164.021 52.4314 163.307 52.3237 162.161 52.4442C160.737 52.5938 160.429 52.7238 159.26 53.6671C155.887 56.3887 155.868 59.6908 159.221 60.3665C161.633 60.8528 165.063 59.1821 166.066 57.033C166.872 55.3034 166.386 53.8028 164.704 52.8274ZM149.378 45.4503C146.517 44.85 143.934 46.3561 143.276 49.008C143.078 49.808 143.114 50.5112 143.384 51.1232C143.741 51.9333 143.934 52.0741 145.03 52.3287C146.315 52.6271 148.5 52.1991 149.738 51.4068C150.708 50.7855 151.714 48.9302 151.678 47.8303C151.628 46.3232 151.143 45.8208 149.378 45.4503ZM161.754 62.9835C160.553 62.0471 156.901 61.871 155.07 62.6608C152.298 63.8557 152.464 67.3523 155.335 68.2845C156.522 68.6697 158.889 68.5256 160.124 67.9934C162.606 66.9228 163.456 64.3104 161.754 62.9835ZM151.575 55.9416C151.268 55.7174 148.964 55.06 146.456 54.4806C144.754 54.0681 143.841 53.6916 142.049 53.5864C140.947 53.8489 139.747 54.7316 139.569 55.9304C139.327 57.559 139.821 58.5222 141.99 60.6525C143.832 62.4631 143.86 62.5036 145.011 65.1229C146.705 68.9804 148.124 70.1358 150.167 69.321C151.364 68.8433 151.731 67.8295 151.459 65.7476C151.244 64.1083 151.469 62.9361 152.467 60.4728C153.247 58.5471 152.929 56.9273 151.575 55.9416Z" fill="#DEDBE1"/>
</g>
<g filter="url(#filter21_d_25_2721)">
<path fill-rule="evenodd" clip-rule="evenodd" d="M449.321 45.969C446.655 44.6328 443.105 46.6084 442.156 49.9551C441.838 51.079 441.868 51.396 442.367 52.1746C443.383 53.762 444.982 53.8487 447.737 52.4664C449.604 51.5299 450.685 50.2115 450.87 48.6448C451.016 47.4098 450.534 46.5771 449.321 45.969ZM453.704 52.8274C453.021 52.4314 452.307 52.3237 451.161 52.4442C449.737 52.5938 449.429 52.7238 448.26 53.6671C444.887 56.3887 444.868 59.6908 448.221 60.3665C450.633 60.8528 454.063 59.1821 455.066 57.033C455.872 55.3034 455.386 53.8028 453.704 52.8274ZM438.378 45.4503C435.517 44.85 432.934 46.3561 432.276 49.008C432.078 49.808 432.114 50.5112 432.384 51.1232C432.741 51.9333 432.934 52.0741 434.03 52.3287C435.315 52.6271 437.5 52.1991 438.738 51.4068C439.708 50.7855 440.714 48.9302 440.678 47.8303C440.628 46.3232 440.143 45.8208 438.378 45.4503ZM450.754 62.9835C449.553 62.0471 445.901 61.871 444.07 62.6608C441.298 63.8557 441.464 67.3523 444.335 68.2845C445.522 68.6697 447.889 68.5256 449.124 67.9934C451.606 66.9228 452.456 64.3104 450.754 62.9835ZM440.575 55.9416C440.268 55.7174 437.964 55.06 435.456 54.4806C433.754 54.0681 432.841 53.6916 431.049 53.5864C429.947 53.8489 428.747 54.7316 428.569 55.9304C428.327 57.559 428.821 58.5222 430.99 60.6525C432.832 62.4631 432.86 62.5036 434.011 65.1229C435.705 68.9804 437.124 70.1358 439.167 69.321C440.364 68.8433 440.731 67.8295 440.459 65.7476C440.244 64.1083 440.469 62.9361 441.467 60.4728C442.247 58.5471 441.929 56.9273 440.575 55.9416Z" fill="#DEDBE1"/>
</g>
<g filter="url(#filter22_d_25_2721)">
<path fill-rule="evenodd" clip-rule="evenodd" d="M738.321 45.969C735.655 44.6328 732.104 46.6084 731.156 49.9551C730.838 51.079 730.868 51.396 731.366 52.1746C732.383 53.762 733.982 53.8487 736.737 52.4664C738.604 51.5299 739.685 50.2115 739.87 48.6448C740.016 47.4098 739.534 46.5771 738.321 45.969ZM742.704 52.8274C742.021 52.4314 741.307 52.3237 740.161 52.4442C738.737 52.5938 738.429 52.7238 737.26 53.6671C733.887 56.3887 733.868 59.6908 737.221 60.3665C739.633 60.8528 743.063 59.1821 744.065 57.033C744.872 55.3034 744.386 53.8028 742.704 52.8274ZM727.378 45.4503C724.517 44.85 721.934 46.3561 721.276 49.008C721.078 49.808 721.113 50.5112 721.384 51.1232C721.741 51.9333 721.933 52.0741 723.03 52.3287C724.315 52.6271 726.5 52.1991 727.738 51.4068C728.708 50.7855 729.714 48.9302 729.678 47.8303C729.628 46.3232 729.142 45.8208 727.378 45.4503ZM739.754 62.9835C738.553 62.0471 734.901 61.871 733.069 62.6608C730.298 63.8557 730.463 67.3523 733.335 68.2845C734.522 68.6697 736.889 68.5256 738.123 67.9934C740.606 66.9228 741.456 64.3104 739.754 62.9835ZM729.575 55.9416C729.267 55.7174 726.964 55.06 724.456 54.4806C722.753 54.0681 721.841 53.6916 720.049 53.5864C718.947 53.8489 717.747 54.7316 717.569 55.9304C717.327 57.559 717.821 58.5222 719.989 60.6525C721.832 62.4631 721.86 62.5036 723.01 65.1229C724.705 68.9804 726.124 70.1358 728.167 69.321C729.364 68.8433 729.731 67.8295 729.459 65.7476C729.244 64.1083 729.468 62.9361 730.467 60.4728C731.247 58.5471 730.929 56.9273 729.575 55.9416Z" fill="#DEDBE1"/>
</g>
<g filter="url(#filter23_d_25_2721)">
<path fill-rule="evenodd" clip-rule="evenodd" d="M1027.32 45.969C1024.66 44.6328 1021.1 46.6084 1020.16 49.9551C1019.84 51.079 1019.87 51.396 1020.37 52.1746C1021.38 53.762 1022.98 53.8487 1025.74 52.4664C1027.6 51.5299 1028.68 50.2115 1028.87 48.6448C1029.02 47.4098 1028.53 46.5771 1027.32 45.969ZM1031.7 52.8274C1031.02 52.4314 1030.31 52.3237 1029.16 52.4442C1027.74 52.5938 1027.43 52.7238 1026.26 53.6671C1022.89 56.3887 1022.87 59.6908 1026.22 60.3665C1028.63 60.8528 1032.06 59.1821 1033.07 57.033C1033.87 55.3034 1033.39 53.8028 1031.7 52.8274ZM1016.38 45.4503C1013.52 44.85 1010.93 46.3561 1010.28 49.008C1010.08 49.808 1010.11 50.5112 1010.38 51.1232C1010.74 51.9333 1010.93 52.0741 1012.03 52.3287C1013.31 52.6271 1015.5 52.1991 1016.74 51.4068C1017.71 50.7855 1018.71 48.9302 1018.68 47.8303C1018.63 46.3232 1018.14 45.8208 1016.38 45.4503ZM1028.75 62.9835C1027.55 62.0471 1023.9 61.871 1022.07 62.6608C1019.3 63.8557 1019.46 67.3523 1022.33 68.2845C1023.52 68.6697 1025.89 68.5256 1027.12 67.9934C1029.61 66.9228 1030.46 64.3104 1028.75 62.9835ZM1018.58 55.9416C1018.27 55.7174 1015.96 55.06 1013.46 54.4806C1011.75 54.0681 1010.84 53.6916 1009.05 53.5864C1007.95 53.8489 1006.75 54.7316 1006.57 55.9304C1006.33 57.559 1006.82 58.5222 1008.99 60.6525C1010.83 62.4631 1010.86 62.5036 1012.01 65.1229C1013.71 68.9804 1015.12 70.1358 1017.17 69.321C1018.36 68.8433 1018.73 67.8295 1018.46 65.7476C1018.24 64.1083 1018.47 62.9361 1019.47 60.4728C1020.25 58.5471 1019.93 56.9273 1018.58 55.9416Z" fill="#DEDBE1"/>
</g>
<g filter="url(#filter24_d_25_2721)">
<path fill-rule="evenodd" clip-rule="evenodd" d="M1316.32 45.969C1313.66 44.6328 1310.1 46.6084 1309.16 49.9551C1308.84 51.079 1308.87 51.396 1309.37 52.1746C1310.38 53.762 1311.98 53.8487 1314.74 52.4664C1316.6 51.5299 1317.68 50.2115 1317.87 48.6448C1318.02 47.4098 1317.53 46.5771 1316.32 45.969ZM1320.7 52.8274C1320.02 52.4314 1319.31 52.3237 1318.16 52.4442C1316.74 52.5938 1316.43 52.7238 1315.26 53.6671C1311.89 56.3887 1311.87 59.6908 1315.22 60.3665C1317.63 60.8528 1321.06 59.1821 1322.07 57.033C1322.87 55.3034 1322.39 53.8028 1320.7 52.8274ZM1305.38 45.4503C1302.52 44.85 1299.93 46.3561 1299.28 49.008C1299.08 49.808 1299.11 50.5112 1299.38 51.1232C1299.74 51.9333 1299.93 52.0741 1301.03 52.3287C1302.31 52.6271 1304.5 52.1991 1305.74 51.4068C1306.71 50.7855 1307.71 48.9302 1307.68 47.8303C1307.63 46.3232 1307.14 45.8208 1305.38 45.4503ZM1317.75 62.9835C1316.55 62.0471 1312.9 61.871 1311.07 62.6608C1308.3 63.8557 1308.46 67.3523 1311.33 68.2845C1312.52 68.6697 1314.89 68.5256 1316.12 67.9934C1318.61 66.9228 1319.46 64.3104 1317.75 62.9835ZM1307.58 55.9416C1307.27 55.7174 1304.96 55.06 1302.46 54.4806C1300.75 54.0681 1299.84 53.6916 1298.05 53.5864C1296.95 53.8489 1295.75 54.7316 1295.57 55.9304C1295.33 57.559 1295.82 58.5222 1297.99 60.6525C1299.83 62.4631 1299.86 62.5036 1301.01 65.1229C1302.71 68.9804 1304.12 70.1358 1306.17 69.321C1307.36 68.8433 1307.73 67.8295 1307.46 65.7476C1307.24 64.1083 1307.47 62.9361 1308.47 60.4728C1309.25 58.5471 1308.93 56.9273 1307.58 55.9416Z" fill="#DEDBE1"/>
</g>
<g filter="url(#filter25_d_25_2721)">
<path fill-rule="evenodd" clip-rule="evenodd" d="M242.321 33.969C239.655 32.6328 236.105 34.6084 235.156 37.9551C234.838 39.079 234.868 39.396 235.367 40.1746C236.383 41.762 237.982 41.8487 240.737 40.4664C242.604 39.5299 243.685 38.2115 243.87 36.6448C244.016 35.4098 243.534 34.5771 242.321 33.969ZM246.704 40.8274C246.021 40.4314 245.307 40.3237 244.161 40.4442C242.737 40.5938 242.429 40.7238 241.26 41.6671C237.887 44.3887 237.868 47.6908 241.221 48.3665C243.633 48.8528 247.063 47.1821 248.066 45.033C248.872 43.3034 248.386 41.8028 246.704 40.8274ZM231.378 33.4503C228.517 32.85 225.934 34.3561 225.276 37.008C225.078 37.808 225.114 38.5112 225.384 39.1232C225.741 39.9333 225.934 40.0741 227.03 40.3287C228.315 40.6271 230.5 40.1991 231.738 39.4068C232.708 38.7855 233.714 36.9302 233.678 35.8303C233.628 34.3232 233.143 33.8208 231.378 33.4503ZM243.754 50.9835C242.553 50.0471 238.901 49.871 237.07 50.6608C234.298 51.8557 234.464 55.3523 237.335 56.2845C238.522 56.6697 240.889 56.5256 242.124 55.9934C244.606 54.9228 245.456 52.3104 243.754 50.9835ZM233.575 43.9416C233.268 43.7174 230.964 43.06 228.456 42.4806C226.754 42.0681 225.841 41.6916 224.049 41.5864C222.947 41.8489 221.747 42.7316 221.569 43.9304C221.327 45.559 221.821 46.5222 223.99 48.6525C225.832 50.4631 225.86 50.5036 227.011 53.1229C228.705 56.9804 230.124 58.1358 232.167 57.321C233.364 56.8433 233.731 55.8295 233.459 53.7476C233.244 52.1083 233.469 50.9361 234.467 48.4728C235.247 46.5471 234.929 44.9273 233.575 43.9416Z" fill="#DEDBE1"/>
</g>
<g filter="url(#filter26_d_25_2721)">
<path fill-rule="evenodd" clip-rule="evenodd" d="M531.321 33.969C528.655 32.6328 525.105 34.6084 524.156 37.9551C523.838 39.079 523.868 39.396 524.367 40.1746C525.383 41.762 526.982 41.8487 529.737 40.4664C531.604 39.5299 532.685 38.2115 532.87 36.6448C533.016 35.4098 532.534 34.5771 531.321 33.969ZM535.704 40.8274C535.021 40.4314 534.307 40.3237 533.161 40.4442C531.737 40.5938 531.429 40.7238 530.26 41.6671C526.887 44.3887 526.868 47.6908 530.221 48.3665C532.633 48.8528 536.063 47.1821 537.066 45.033C537.872 43.3034 537.386 41.8028 535.704 40.8274ZM520.378 33.4503C517.517 32.85 514.934 34.3561 514.276 37.008C514.078 37.808 514.114 38.5112 514.384 39.1232C514.741 39.9333 514.934 40.0741 516.03 40.3287C517.315 40.6271 519.5 40.1991 520.738 39.4068C521.708 38.7855 522.714 36.9302 522.678 35.8303C522.628 34.3232 522.143 33.8208 520.378 33.4503ZM532.754 50.9835C531.553 50.0471 527.901 49.871 526.07 50.6608C523.298 51.8557 523.464 55.3523 526.335 56.2845C527.522 56.6697 529.889 56.5256 531.124 55.9934C533.606 54.9228 534.456 52.3104 532.754 50.9835ZM522.575 43.9416C522.268 43.7174 519.964 43.06 517.456 42.4806C515.754 42.0681 514.841 41.6916 513.049 41.5864C511.947 41.8489 510.747 42.7316 510.569 43.9304C510.327 45.559 510.821 46.5222 512.99 48.6525C514.832 50.4631 514.86 50.5036 516.011 53.1229C517.705 56.9804 519.124 58.1358 521.167 57.321C522.364 56.8433 522.731 55.8295 522.459 53.7476C522.244 52.1083 522.469 50.9361 523.467 48.4728C524.247 46.5471 523.929 44.9273 522.575 43.9416Z" fill="#DEDBE1"/>
</g>
<g filter="url(#filter27_d_25_2721)">
<path fill-rule="evenodd" clip-rule="evenodd" d="M820.321 33.969C817.655 32.6328 814.104 34.6084 813.156 37.9551C812.838 39.079 812.868 39.396 813.366 40.1746C814.383 41.762 815.982 41.8487 818.737 40.4664C820.604 39.5299 821.685 38.2115 821.87 36.6448C822.016 35.4098 821.534 34.5771 820.321 33.969ZM824.704 40.8274C824.021 40.4314 823.307 40.3237 822.161 40.4442C820.737 40.5938 820.429 40.7238 819.26 41.6671C815.887 44.3887 815.868 47.6908 819.221 48.3665C821.633 48.8528 825.063 47.1821 826.065 45.033C826.872 43.3034 826.386 41.8028 824.704 40.8274ZM809.378 33.4503C806.517 32.85 803.934 34.3561 803.276 37.008C803.078 37.808 803.113 38.5112 803.384 39.1232C803.741 39.9333 803.933 40.0741 805.03 40.3287C806.315 40.6271 808.5 40.1991 809.738 39.4068C810.708 38.7855 811.714 36.9302 811.678 35.8303C811.628 34.3232 811.142 33.8208 809.378 33.4503ZM821.754 50.9835C820.553 50.0471 816.901 49.871 815.069 50.6608C812.298 51.8557 812.463 55.3523 815.335 56.2845C816.522 56.6697 818.889 56.5256 820.123 55.9934C822.606 54.9228 823.456 52.3104 821.754 50.9835ZM811.575 43.9416C811.267 43.7174 808.964 43.06 806.456 42.4806C804.753 42.0681 803.841 41.6916 802.049 41.5864C800.947 41.8489 799.747 42.7316 799.569 43.9304C799.327 45.559 799.821 46.5222 801.989 48.6525C803.832 50.4631 803.86 50.5036 805.01 53.1229C806.705 56.9804 808.124 58.1358 810.167 57.321C811.364 56.8433 811.731 55.8295 811.459 53.7476C811.244 52.1083 811.468 50.9361 812.467 48.4728C813.247 46.5471 812.929 44.9273 811.575 43.9416Z" fill="#DEDBE1"/>
</g>
<g filter="url(#filter28_d_25_2721)">
<path fill-rule="evenodd" clip-rule="evenodd" d="M1109.32 33.969C1106.66 32.6328 1103.1 34.6084 1102.16 37.9551C1101.84 39.079 1101.87 39.396 1102.37 40.1746C1103.38 41.762 1104.98 41.8487 1107.74 40.4664C1109.6 39.5299 1110.68 38.2115 1110.87 36.6448C1111.02 35.4098 1110.53 34.5771 1109.32 33.969ZM1113.7 40.8274C1113.02 40.4314 1112.31 40.3237 1111.16 40.4442C1109.74 40.5938 1109.43 40.7238 1108.26 41.6671C1104.89 44.3887 1104.87 47.6908 1108.22 48.3665C1110.63 48.8528 1114.06 47.1821 1115.07 45.033C1115.87 43.3034 1115.39 41.8028 1113.7 40.8274ZM1098.38 33.4503C1095.52 32.85 1092.93 34.3561 1092.28 37.008C1092.08 37.808 1092.11 38.5112 1092.38 39.1232C1092.74 39.9333 1092.93 40.0741 1094.03 40.3287C1095.31 40.6271 1097.5 40.1991 1098.74 39.4068C1099.71 38.7855 1100.71 36.9302 1100.68 35.8303C1100.63 34.3232 1100.14 33.8208 1098.38 33.4503ZM1110.75 50.9835C1109.55 50.0471 1105.9 49.871 1104.07 50.6608C1101.3 51.8557 1101.46 55.3523 1104.33 56.2845C1105.52 56.6697 1107.89 56.5256 1109.12 55.9934C1111.61 54.9228 1112.46 52.3104 1110.75 50.9835ZM1100.58 43.9416C1100.27 43.7174 1097.96 43.06 1095.46 42.4806C1093.75 42.0681 1092.84 41.6916 1091.05 41.5864C1089.95 41.8489 1088.75 42.7316 1088.57 43.9304C1088.33 45.559 1088.82 46.5222 1090.99 48.6525C1092.83 50.4631 1092.86 50.5036 1094.01 53.1229C1095.71 56.9804 1097.12 58.1358 1099.17 57.321C1100.36 56.8433 1100.73 55.8295 1100.46 53.7476C1100.24 52.1083 1100.47 50.9361 1101.47 48.4728C1102.25 46.5471 1101.93 44.9273 1100.58 43.9416Z" fill="#DEDBE1"/>
</g>
<g filter="url(#filter29_d_25_2721)">
<path fill-rule="evenodd" clip-rule="evenodd" d="M1398.32 33.969C1395.66 32.6328 1392.1 34.6084 1391.16 37.9551C1390.84 39.079 1390.87 39.396 1391.37 40.1746C1392.38 41.762 1393.98 41.8487 1396.74 40.4664C1398.6 39.5299 1399.68 38.2115 1399.87 36.6448C1400.02 35.4098 1399.53 34.5771 1398.32 33.969ZM1402.7 40.8274C1402.02 40.4314 1401.31 40.3237 1400.16 40.4442C1398.74 40.5938 1398.43 40.7238 1397.26 41.6671C1393.89 44.3887 1393.87 47.6908 1397.22 48.3665C1399.63 48.8528 1403.06 47.1821 1404.07 45.033C1404.87 43.3034 1404.39 41.8028 1402.7 40.8274ZM1387.38 33.4503C1384.52 32.85 1381.93 34.3561 1381.28 37.008C1381.08 37.808 1381.11 38.5112 1381.38 39.1232C1381.74 39.9333 1381.93 40.0741 1383.03 40.3287C1384.31 40.6271 1386.5 40.1991 1387.74 39.4068C1388.71 38.7855 1389.71 36.9302 1389.68 35.8303C1389.63 34.3232 1389.14 33.8208 1387.38 33.4503ZM1399.75 50.9835C1398.55 50.0471 1394.9 49.871 1393.07 50.6608C1390.3 51.8557 1390.46 55.3523 1393.33 56.2845C1394.52 56.6697 1396.89 56.5256 1398.12 55.9934C1400.61 54.9228 1401.46 52.3104 1399.75 50.9835ZM1389.58 43.9416C1389.27 43.7174 1386.96 43.06 1384.46 42.4806C1382.75 42.0681 1381.84 41.6916 1380.05 41.5864C1378.95 41.8489 1377.75 42.7316 1377.57 43.9304C1377.33 45.559 1377.82 46.5222 1379.99 48.6525C1381.83 50.4631 1381.86 50.5036 1383.01 53.1229C1384.71 56.9804 1386.12 58.1358 1388.17 57.321C1389.36 56.8433 1389.73 55.8295 1389.46 53.7476C1389.24 52.1083 1389.47 50.9361 1390.47 48.4728C1391.25 46.5471 1390.93 44.9273 1389.58 43.9416Z" fill="#DEDBE1"/>
</g>
<defs>
<filter id="filter0_d_25_2721" x="0.855469" y="0.73877" width="29.5347" height="27.6406" filterUnits="userSpaceOnUse" color-interpolation-filters="sRGB">
<feFlood flood-opacity="0" result="BackgroundImageFix"/>
<feColorMatrix in="SourceAlpha" type="matrix" values="0 0 0 0 0 0 0 0 0 0 0 0 0 0 0 0 0 0 127 0" result="hardAlpha"/>
<feOffset dx="3" dy="3"/>
<feComposite in2="hardAlpha" operator="out"/>
<feColorMatrix type="matrix" values="0 0 0 0 0 0 0 0 0 0 0 0 0 0 0 0 0 0 0.4 0"/>
<feBlend mode="normal" in2="BackgroundImageFix" result="effect1_dropShadow_25_2721"/>
<feBlend mode="normal" in="SourceGraphic" in2="effect1_dropShadow_25_2721" result="shape"/>
</filter>
<filter id="filter1_d_25_2721" x="289.855" y="0.73877" width="29.5347" height="27.6406" filterUnits="userSpaceOnUse" color-interpolation-filters="sRGB">
<feFlood flood-opacity="0" result="BackgroundImageFix"/>
<feColorMatrix in="SourceAlpha" type="matrix" values="0 0 0 0 0 0 0 0 0 0 0 0 0 0 0 0 0 0 127 0" result="hardAlpha"/>
<feOffset dx="3" dy="3"/>
<feComposite in2="hardAlpha" operator="out"/>
<feColorMatrix type="matrix" values="0 0 0 0 0 0 0 0 0 0 0 0 0 0 0 0 0 0 0.4 0"/>
<feBlend mode="normal" in2="BackgroundImageFix" result="effect1_dropShadow_25_2721"/>
<feBlend mode="normal" in="SourceGraphic" in2="effect1_dropShadow_25_2721" result="shape"/>
</filter>
<filter id="filter2_d_25_2721" x="578.855" y="0.73877" width="29.5347" height="27.6406" filterUnits="userSpaceOnUse" color-interpolation-filters="sRGB">
<feFlood flood-opacity="0" result="BackgroundImageFix"/>
<feColorMatrix in="SourceAlpha" type="matrix" values="0 0 0 0 0 0 0 0 0 0 0 0 0 0 0 0 0 0 127 0" result="hardAlpha"/>
<feOffset dx="3" dy="3"/>
<feComposite in2="hardAlpha" operator="out"/>
<feColorMatrix type="matrix" values="0 0 0 0 0 0 0 0 0 0 0 0 0 0 0 0 0 0 0.4 0"/>
<feBlend mode="normal" in2="BackgroundImageFix" result="effect1_dropShadow_25_2721"/>
<feBlend mode="normal" in="SourceGraphic" in2="effect1_dropShadow_25_2721" result="shape"/>
</filter>
<filter id="filter3_d_25_2721" x="867.855" y="0.73877" width="29.5347" height="27.6406" filterUnits="userSpaceOnUse" color-interpolation-filters="sRGB">
<feFlood flood-opacity="0" result="BackgroundImageFix"/>
<feColorMatrix in="SourceAlpha" type="matrix" values="0 0 0 0 0 0 0 0 0 0 0 0 0 0 0 0 0 0 127 0" result="hardAlpha"/>
<feOffset dx="3" dy="3"/>
<feComposite in2="hardAlpha" operator="out"/>
<feColorMatrix type="matrix" values="0 0 0 0 0 0 0 0 0 0 0 0 0 0 0 0 0 0 0.4 0"/>
<feBlend mode="normal" in2="BackgroundImageFix" result="effect1_dropShadow_25_2721"/>
<feBlend mode="normal" in="SourceGraphic" in2="effect1_dropShadow_25_2721" result="shape"/>
</filter>
<filter id="filter4_d_25_2721" x="1156.86" y="0.73877" width="29.5327" height="27.6406" filterUnits="userSpaceOnUse" color-interpolation-filters="sRGB">
<feFlood flood-opacity="0" result="BackgroundImageFix"/>
<feColorMatrix in="SourceAlpha" type="matrix" values="0 0 0 0 0 0 0 0 0 0 0 0 0 0 0 0 0 0 127 0" result="hardAlpha"/>
<feOffset dx="3" dy="3"/>
<feComposite in2="hardAlpha" operator="out"/>
<feColorMatrix type="matrix" values="0 0 0 0 0 0 0 0 0 0 0 0 0 0 0 0 0 0 0.4 0"/>
<feBlend mode="normal" in2="BackgroundImageFix" result="effect1_dropShadow_25_2721"/>
<feBlend mode="normal" in="SourceGraphic" in2="effect1_dropShadow_25_2721" result="shape"/>
</filter>
<filter id="filter5_d_25_2721" x="101.855" y="13.7388" width="29.5347" height="27.6406" filterUnits="userSpaceOnUse" color-interpolation-filters="sRGB">
<feFlood flood-opacity="0" result="BackgroundImageFix"/>
<feColorMatrix in="SourceAlpha" type="matrix" values="0 0 0 0 0 0 0 0 0 0 0 0 0 0 0 0 0 0 127 0" result="hardAlpha"/>
<feOffset dx="3" dy="3"/>
<feComposite in2="hardAlpha" operator="out"/>
<feColorMatrix type="matrix" values="0 0 0 0 0 0 0 0 0 0 0 0 0 0 0 0 0 0 0.4 0"/>
<feBlend mode="normal" in2="BackgroundImageFix" result="effect1_dropShadow_25_2721"/>
<feBlend mode="normal" in="SourceGraphic" in2="effect1_dropShadow_25_2721" result="shape"/>
</filter>
<filter id="filter6_d_25_2721" x="390.855" y="13.7388" width="29.5347" height="27.6406" filterUnits="userSpaceOnUse" color-interpolation-filters="sRGB">
<feFlood flood-opacity="0" result="BackgroundImageFix"/>
<feColorMatrix in="SourceAlpha" type="matrix" values="0 0 0 0 0 0 0 0 0 0 0 0 0 0 0 0 0 0 127 0" result="hardAlpha"/>
<feOffset dx="3" dy="3"/>
<feComposite in2="hardAlpha" operator="out"/>
<feColorMatrix type="matrix" values="0 0 0 0 0 0 0 0 0 0 0 0 0 0 0 0 0 0 0.4 0"/>
<feBlend mode="normal" in2="BackgroundImageFix" result="effect1_dropShadow_25_2721"/>
<feBlend mode="normal" in="SourceGraphic" in2="effect1_dropShadow_25_2721" result="shape"/>
</filter>
<filter id="filter7_d_25_2721" x="679.855" y="13.7388" width="29.5347" height="27.6406" filterUnits="userSpaceOnUse" color-interpolation-filters="sRGB">
<feFlood flood-opacity="0" result="BackgroundImageFix"/>
<feColorMatrix in="SourceAlpha" type="matrix" values="0 0 0 0 0 0 0 0 0 0 0 0 0 0 0 0 0 0 127 0" result="hardAlpha"/>
<feOffset dx="3" dy="3"/>
<feComposite in2="hardAlpha" operator="out"/>
<feColorMatrix type="matrix" values="0 0 0 0 0 0 0 0 0 0 0 0 0 0 0 0 0 0 0.4 0"/>
<feBlend mode="normal" in2="BackgroundImageFix" result="effect1_dropShadow_25_2721"/>
<feBlend mode="normal" in="SourceGraphic" in2="effect1_dropShadow_25_2721" result="shape"/>
</filter>
<filter id="filter8_d_25_2721" x="968.855" y="13.7388" width="29.5347" height="27.6406" filterUnits="userSpaceOnUse" color-interpolation-filters="sRGB">
<feFlood flood-opacity="0" result="BackgroundImageFix"/>
<feColorMatrix in="SourceAlpha" type="matrix" values="0 0 0 0 0 0 0 0 0 0 0 0 0 0 0 0 0 0 127 0" result="hardAlpha"/>
<feOffset dx="3" dy="3"/>
<feComposite in2="hardAlpha" operator="out"/>
<feColorMatrix type="matrix" values="0 0 0 0 0 0 0 0 0 0 0 0 0 0 0 0 0 0 0.4 0"/>
<feBlend mode="normal" in2="BackgroundImageFix" result="effect1_dropShadow_25_2721"/>
<feBlend mode="normal" in="SourceGraphic" in2="effect1_dropShadow_25_2721" result="shape"/>
</filter>
<filter id="filter9_d_25_2721" x="1257.86" y="13.7388" width="29.5327" height="27.6406" filterUnits="userSpaceOnUse" color-interpolation-filters="sRGB">
<feFlood flood-opacity="0" result="BackgroundImageFix"/>
<feColorMatrix in="SourceAlpha" type="matrix" values="0 0 0 0 0 0 0 0 0 0 0 0 0 0 0 0 0 0 127 0" result="hardAlpha"/>
<feOffset dx="3" dy="3"/>
<feComposite in2="hardAlpha" operator="out"/>
<feColorMatrix type="matrix" values="0 0 0 0 0 0 0 0 0 0 0 0 0 0 0 0 0 0 0.4 0"/>
<feBlend mode="normal" in2="BackgroundImageFix" result="effect1_dropShadow_25_2721"/>
<feBlend mode="normal" in="SourceGraphic" in2="effect1_dropShadow_25_2721" result="shape"/>
</filter>
<filter id="filter10_d_25_2721" x="183.855" y="1.73877" width="29.5347" height="27.6406" filterUnits="userSpaceOnUse" color-interpolation-filters="sRGB">
<feFlood flood-opacity="0" result="BackgroundImageFix"/>
<feColorMatrix in="SourceAlpha" type="matrix" values="0 0 0 0 0 0 0 0 0 0 0 0 0 0 0 0 0 0 127 0" result="hardAlpha"/>
<feOffset dx="3" dy="3"/>
<feComposite in2="hardAlpha" operator="out"/>
<feColorMatrix type="matrix" values="0 0 0 0 0 0 0 0 0 0 0 0 0 0 0 0 0 0 0.4 0"/>
<feBlend mode="normal" in2="BackgroundImageFix" result="effect1_dropShadow_25_2721"/>
<feBlend mode="normal" in="SourceGraphic" in2="effect1_dropShadow_25_2721" result="shape"/>
</filter>
<filter id="filter11_d_25_2721" x="472.855" y="1.73877" width="29.5347" height="27.6406" filterUnits="userSpaceOnUse" color-interpolation-filters="sRGB">
<feFlood flood-opacity="0" result="BackgroundImageFix"/>
<feColorMatrix in="SourceAlpha" type="matrix" values="0 0 0 0 0 0 0 0 0 0 0 0 0 0 0 0 0 0 127 0" result="hardAlpha"/>
<feOffset dx="3" dy="3"/>
<feComposite in2="hardAlpha" operator="out"/>
<feColorMatrix type="matrix" values="0 0 0 0 0 0 0 0 0 0 0 0 0 0 0 0 0 0 0.4 0"/>
<feBlend mode="normal" in2="BackgroundImageFix" result="effect1_dropShadow_25_2721"/>
<feBlend mode="normal" in="SourceGraphic" in2="effect1_dropShadow_25_2721" result="shape"/>
</filter>
<filter id="filter12_d_25_2721" x="761.855" y="1.73877" width="29.5347" height="27.6406" filterUnits="userSpaceOnUse" color-interpolation-filters="sRGB">
<feFlood flood-opacity="0" result="BackgroundImageFix"/>
<feColorMatrix in="SourceAlpha" type="matrix" values="0 0 0 0 0 0 0 0 0 0 0 0 0 0 0 0 0 0 127 0" result="hardAlpha"/>
<feOffset dx="3" dy="3"/>
<feComposite in2="hardAlpha" operator="out"/>
<feColorMatrix type="matrix" values="0 0 0 0 0 0 0 0 0 0 0 0 0 0 0 0 0 0 0.4 0"/>
<feBlend mode="normal" in2="BackgroundImageFix" result="effect1_dropShadow_25_2721"/>
<feBlend mode="normal" in="SourceGraphic" in2="effect1_dropShadow_25_2721" result="shape"/>
</filter>
<filter id="filter13_d_25_2721" x="1050.86" y="1.73877" width="29.5327" height="27.6406" filterUnits="userSpaceOnUse" color-interpolation-filters="sRGB">
<feFlood flood-opacity="0" result="BackgroundImageFix"/>
<feColorMatrix in="SourceAlpha" type="matrix" values="0 0 0 0 0 0 0 0 0 0 0 0 0 0 0 0 0 0 127 0" result="hardAlpha"/>
<feOffset dx="3" dy="3"/>
<feComposite in2="hardAlpha" operator="out"/>
<feColorMatrix type="matrix" values="0 0 0 0 0 0 0 0 0 0 0 0 0 0 0 0 0 0 0.4 0"/>
<feBlend mode="normal" in2="BackgroundImageFix" result="effect1_dropShadow_25_2721"/>
<feBlend mode="normal" in="SourceGraphic" in2="effect1_dropShadow_25_2721" result="shape"/>
</filter>
<filter id="filter14_d_25_2721" x="1339.86" y="1.73877" width="29.5327" height="27.6406" filterUnits="userSpaceOnUse" color-interpolation-filters="sRGB">
<feFlood flood-opacity="0" result="BackgroundImageFix"/>
<feColorMatrix in="SourceAlpha" type="matrix" values="0 0 0 0 0 0 0 0 0 0 0 0 0 0 0 0 0 0 127 0" result="hardAlpha"/>
<feOffset dx="3" dy="3"/>
<feComposite in2="hardAlpha" operator="out"/>
<feColorMatrix type="matrix" values="0 0 0 0 0 0 0 0 0 0 0 0 0 0 0 0 0 0 0.4 0"/>
<feBlend mode="normal" in2="BackgroundImageFix" result="effect1_dropShadow_25_2721"/>
<feBlend mode="normal" in="SourceGraphic" in2="effect1_dropShadow_25_2721" result="shape"/>
</filter>
<filter id="filter15_d_25_2721" x="38.5132" y="32.3191" width="29.9331" height="27.2485" filterUnits="userSpaceOnUse" color-interpolation-filters="sRGB">
<feFlood flood-opacity="0" result="BackgroundImageFix"/>
<feColorMatrix in="SourceAlpha" type="matrix" values="0 0 0 0 0 0 0 0 0 0 0 0 0 0 0 0 0 0 127 0" result="hardAlpha"/>
<feOffset dx="3" dy="3"/>
<feComposite in2="hardAlpha" operator="out"/>
<feColorMatrix type="matrix" values="0 0 0 0 0 0 0 0 0 0 0 0 0 0 0 0 0 0 0.4 0"/>
<feBlend mode="normal" in2="BackgroundImageFix" result="effect1_dropShadow_25_2721"/>
<feBlend mode="normal" in="SourceGraphic" in2="effect1_dropShadow_25_2721" result="shape"/>
</filter>
<filter id="filter16_d_25_2721" x="327.513" y="32.3191" width="29.9331" height="27.2485" filterUnits="userSpaceOnUse" color-interpolation-filters="sRGB">
<feFlood flood-opacity="0" result="BackgroundImageFix"/>
<feColorMatrix in="SourceAlpha" type="matrix" values="0 0 0 0 0 0 0 0 0 0 0 0 0 0 0 0 0 0 127 0" result="hardAlpha"/>
<feOffset dx="3" dy="3"/>
<feComposite in2="hardAlpha" operator="out"/>
<feColorMatrix type="matrix" values="0 0 0 0 0 0 0 0 0 0 0 0 0 0 0 0 0 0 0.4 0"/>
<feBlend mode="normal" in2="BackgroundImageFix" result="effect1_dropShadow_25_2721"/>
<feBlend mode="normal" in="SourceGraphic" in2="effect1_dropShadow_25_2721" result="shape"/>
</filter>
<filter id="filter17_d_25_2721" x="616.513" y="32.3191" width="29.9326" height="27.2485" filterUnits="userSpaceOnUse" color-interpolation-filters="sRGB">
<feFlood flood-opacity="0" result="BackgroundImageFix"/>
<feColorMatrix in="SourceAlpha" type="matrix" values="0 0 0 0 0 0 0 0 0 0 0 0 0 0 0 0 0 0 127 0" result="hardAlpha"/>
<feOffset dx="3" dy="3"/>
<feComposite in2="hardAlpha" operator="out"/>
<feColorMatrix type="matrix" values="0 0 0 0 0 0 0 0 0 0 0 0 0 0 0 0 0 0 0.4 0"/>
<feBlend mode="normal" in2="BackgroundImageFix" result="effect1_dropShadow_25_2721"/>
<feBlend mode="normal" in="SourceGraphic" in2="effect1_dropShadow_25_2721" result="shape"/>
</filter>
<filter id="filter18_d_25_2721" x="905.513" y="32.3191" width="29.9326" height="27.2485" filterUnits="userSpaceOnUse" color-interpolation-filters="sRGB">
<feFlood flood-opacity="0" result="BackgroundImageFix"/>
<feColorMatrix in="SourceAlpha" type="matrix" values="0 0 0 0 0 0 0 0 0 0 0 0 0 0 0 0 0 0 127 0" result="hardAlpha"/>
<feOffset dx="3" dy="3"/>
<feComposite in2="hardAlpha" operator="out"/>
<feColorMatrix type="matrix" values="0 0 0 0 0 0 0 0 0 0 0 0 0 0 0 0 0 0 0.4 0"/>
<feBlend mode="normal" in2="BackgroundImageFix" result="effect1_dropShadow_25_2721"/>
<feBlend mode="normal" in="SourceGraphic" in2="effect1_dropShadow_25_2721" result="shape"/>
</filter>
<filter id="filter19_d_25_2721" x="1194.51" y="32.3191" width="29.9326" height="27.2485" filterUnits="userSpaceOnUse" color-interpolation-filters="sRGB">
<feFlood flood-opacity="0" result="BackgroundImageFix"/>
<feColorMatrix in="SourceAlpha" type="matrix" values="0 0 0 0 0 0 0 0 0 0 0 0 0 0 0 0 0 0 127 0" result="hardAlpha"/>
<feOffset dx="3" dy="3"/>
<feComposite in2="hardAlpha" operator="out"/>
<feColorMatrix type="matrix" values="0 0 0 0 0 0 0 0 0 0 0 0 0 0 0 0 0 0 0.4 0"/>
<feBlend mode="normal" in2="BackgroundImageFix" result="effect1_dropShadow_25_2721"/>
<feBlend mode="normal" in="SourceGraphic" in2="effect1_dropShadow_25_2721" result="shape"/>
</filter>
<filter id="filter20_d_25_2721" x="139.513" y="45.3191" width="29.9331" height="27.2485" filterUnits="userSpaceOnUse" color-interpolation-filters="sRGB">
<feFlood flood-opacity="0" result="BackgroundImageFix"/>
<feColorMatrix in="SourceAlpha" type="matrix" values="0 0 0 0 0 0 0 0 0 0 0 0 0 0 0 0 0 0 127 0" result="hardAlpha"/>
<feOffset dx="3" dy="3"/>
<feComposite in2="hardAlpha" operator="out"/>
<feColorMatrix type="matrix" values="0 0 0 0 0 0 0 0 0 0 0 0 0 0 0 0 0 0 0.4 0"/>
<feBlend mode="normal" in2="BackgroundImageFix" result="effect1_dropShadow_25_2721"/>
<feBlend mode="normal" in="SourceGraphic" in2="effect1_dropShadow_25_2721" result="shape"/>
</filter>
<filter id="filter21_d_25_2721" x="428.513" y="45.3191" width="29.9331" height="27.2485" filterUnits="userSpaceOnUse" color-interpolation-filters="sRGB">
<feFlood flood-opacity="0" result="BackgroundImageFix"/>
<feColorMatrix in="SourceAlpha" type="matrix" values="0 0 0 0 0 0 0 0 0 0 0 0 0 0 0 0 0 0 127 0" result="hardAlpha"/>
<feOffset dx="3" dy="3"/>
<feComposite in2="hardAlpha" operator="out"/>
<feColorMatrix type="matrix" values="0 0 0 0 0 0 0 0 0 0 0 0 0 0 0 0 0 0 0.4 0"/>
<feBlend mode="normal" in2="BackgroundImageFix" result="effect1_dropShadow_25_2721"/>
<feBlend mode="normal" in="SourceGraphic" in2="effect1_dropShadow_25_2721" result="shape"/>
</filter>
<filter id="filter22_d_25_2721" x="717.513" y="45.3191" width="29.9326" height="27.2485" filterUnits="userSpaceOnUse" color-interpolation-filters="sRGB">
<feFlood flood-opacity="0" result="BackgroundImageFix"/>
<feColorMatrix in="SourceAlpha" type="matrix" values="0 0 0 0 0 0 0 0 0 0 0 0 0 0 0 0 0 0 127 0" result="hardAlpha"/>
<feOffset dx="3" dy="3"/>
<feComposite in2="hardAlpha" operator="out"/>
<feColorMatrix type="matrix" values="0 0 0 0 0 0 0 0 0 0 0 0 0 0 0 0 0 0 0.4 0"/>
<feBlend mode="normal" in2="BackgroundImageFix" result="effect1_dropShadow_25_2721"/>
<feBlend mode="normal" in="SourceGraphic" in2="effect1_dropShadow_25_2721" result="shape"/>
</filter>
<filter id="filter23_d_25_2721" x="1006.51" y="45.3191" width="29.9326" height="27.2485" filterUnits="userSpaceOnUse" color-interpolation-filters="sRGB">
<feFlood flood-opacity="0" result="BackgroundImageFix"/>
<feColorMatrix in="SourceAlpha" type="matrix" values="0 0 0 0 0 0 0 0 0 0 0 0 0 0 0 0 0 0 127 0" result="hardAlpha"/>
<feOffset dx="3" dy="3"/>
<feComposite in2="hardAlpha" operator="out"/>
<feColorMatrix type="matrix" values="0 0 0 0 0 0 0 0 0 0 0 0 0 0 0 0 0 0 0.4 0"/>
<feBlend mode="normal" in2="BackgroundImageFix" result="effect1_dropShadow_25_2721"/>
<feBlend mode="normal" in="SourceGraphic" in2="effect1_dropShadow_25_2721" result="shape"/>
</filter>
<filter id="filter24_d_25_2721" x="1295.51" y="45.3191" width="29.9326" height="27.2485" filterUnits="userSpaceOnUse" color-interpolation-filters="sRGB">
<feFlood flood-opacity="0" result="BackgroundImageFix"/>
<feColorMatrix in="SourceAlpha" type="matrix" values="0 0 0 0 0 0 0 0 0 0 0 0 0 0 0 0 0 0 127 0" result="hardAlpha"/>
<feOffset dx="3" dy="3"/>
<feComposite in2="hardAlpha" operator="out"/>
<feColorMatrix type="matrix" values="0 0 0 0 0 0 0 0 0 0 0 0 0 0 0 0 0 0 0.4 0"/>
<feBlend mode="normal" in2="BackgroundImageFix" result="effect1_dropShadow_25_2721"/>
<feBlend mode="normal" in="SourceGraphic" in2="effect1_dropShadow_25_2721" result="shape"/>
</filter>
<filter id="filter25_d_25_2721" x="221.513" y="33.3191" width="29.9331" height="27.2485" filterUnits="userSpaceOnUse" color-interpolation-filters="sRGB">
<feFlood flood-opacity="0" result="BackgroundImageFix"/>
<feColorMatrix in="SourceAlpha" type="matrix" values="0 0 0 0 0 0 0 0 0 0 0 0 0 0 0 0 0 0 127 0" result="hardAlpha"/>
<feOffset dx="3" dy="3"/>
<feComposite in2="hardAlpha" operator="out"/>
<feColorMatrix type="matrix" values="0 0 0 0 0 0 0 0 0 0 0 0 0 0 0 0 0 0 0.4 0"/>
<feBlend mode="normal" in2="BackgroundImageFix" result="effect1_dropShadow_25_2721"/>
<feBlend mode="normal" in="SourceGraphic" in2="effect1_dropShadow_25_2721" result="shape"/>
</filter>
<filter id="filter26_d_25_2721" x="510.513" y="33.3191" width="29.9331" height="27.2485" filterUnits="userSpaceOnUse" color-interpolation-filters="sRGB">
<feFlood flood-opacity="0" result="BackgroundImageFix"/>
<feColorMatrix in="SourceAlpha" type="matrix" values="0 0 0 0 0 0 0 0 0 0 0 0 0 0 0 0 0 0 127 0" result="hardAlpha"/>
<feOffset dx="3" dy="3"/>
<feComposite in2="hardAlpha" operator="out"/>
<feColorMatrix type="matrix" values="0 0 0 0 0 0 0 0 0 0 0 0 0 0 0 0 0 0 0.4 0"/>
<feBlend mode="normal" in2="BackgroundImageFix" result="effect1_dropShadow_25_2721"/>
<feBlend mode="normal" in="SourceGraphic" in2="effect1_dropShadow_25_2721" result="shape"/>
</filter>
<filter id="filter27_d_25_2721" x="799.513" y="33.3191" width="29.9326" height="27.2485" filterUnits="userSpaceOnUse" color-interpolation-filters="sRGB">
<feFlood flood-opacity="0" result="BackgroundImageFix"/>
<feColorMatrix in="SourceAlpha" type="matrix" values="0 0 0 0 0 0 0 0 0 0 0 0 0 0 0 0 0 0 127 0" result="hardAlpha"/>
<feOffset dx="3" dy="3"/>
<feComposite in2="hardAlpha" operator="out"/>
<feColorMatrix type="matrix" values="0 0 0 0 0 0 0 0 0 0 0 0 0 0 0 0 0 0 0.4 0"/>
<feBlend mode="normal" in2="BackgroundImageFix" result="effect1_dropShadow_25_2721"/>
<feBlend mode="normal" in="SourceGraphic" in2="effect1_dropShadow_25_2721" result="shape"/>
</filter>
<filter id="filter28_d_25_2721" x="1088.51" y="33.3191" width="29.9326" height="27.2485" filterUnits="userSpaceOnUse" color-interpolation-filters="sRGB">
<feFlood flood-opacity="0" result="BackgroundImageFix"/>
<feColorMatrix in="SourceAlpha" type="matrix" values="0 0 0 0 0 0 0 0 0 0 0 0 0 0 0 0 0 0 127 0" result="hardAlpha"/>
<feOffset dx="3" dy="3"/>
<feComposite in2="hardAlpha" operator="out"/>
<feColorMatrix type="matrix" values="0 0 0 0 0 0 0 0 0 0 0 0 0 0 0 0 0 0 0.4 0"/>
<feBlend mode="normal" in2="BackgroundImageFix" result="effect1_dropShadow_25_2721"/>
<feBlend mode="normal" in="SourceGraphic" in2="effect1_dropShadow_25_2721" result="shape"/>
</filter>
<filter id="filter29_d_25_2721" x="1377.51" y="33.3191" width="29.9326" height="27.2485" filterUnits="userSpaceOnUse" color-interpolation-filters="sRGB">
<feFlood flood-opacity="0" result="BackgroundImageFix"/>
<feColorMatrix in="SourceAlpha" type="matrix" values="0 0 0 0 0 0 0 0 0 0 0 0 0 0 0 0 0 0 127 0" result="hardAlpha"/>
<feOffset dx="3" dy="3"/>
<feComposite in2="hardAlpha" operator="out"/>
<feColorMatrix type="matrix" values="0 0 0 0 0 0 0 0 0 0 0 0 0 0 0 0 0 0 0.4 0"/>
<feBlend mode="normal" in2="BackgroundImageFix" result="effect1_dropShadow_25_2721"/>
<feBlend mode="normal" in="SourceGraphic" in2="effect1_dropShadow_25_2721" result="shape"/>
</filter>
</defs>
</svg>
