<svg width="45" height="44" viewBox="0 0 45 44" fill="none" xmlns="http://www.w3.org/2000/svg">
<g filter="url(#filter0_d_16_1590)">
<path d="M40.441 13.1459L40.3261 13.098L40.2304 13.0167C39.8942 12.7294 39.4706 12.5841 38.9692 12.5841H27.6288L27.5938 11.8307C27.5238 10.3469 27.4702 8.86247 27.4173 7.37817C27.3427 5.3135 27.2659 3.179 27.1439 1.08544C27.0699 -0.167019 26.1448 -0.744844 25.3031 -0.867607L25.1858 -0.894065C24.95 -0.966243 24.7436 -1 24.5371 -1H14.6319C13.5813 -1 13.101 -0.396933 12.8832 0.108614L12.8068 0.284699L12.6583 0.406447C12.2333 0.755474 12.021 1.25149 12.0267 1.88071C12.0622 5.7044 12.4547 9.515 12.8344 12.7385L12.9314 13.5593L9.16712 13.8354C7.13976 13.9844 5.11312 14.1338 3.08566 14.2791C2.74211 14.3039 2.43525 14.3968 2.14857 14.5623L2.05845 14.6145L1.95758 14.6412C1.06905 14.8796 0.424316 15.705 0.424316 16.6033V17.1693C0.424316 17.4765 0.505922 17.787 0.667307 18.0928L0.743742 18.2374L0.755299 18.4005C0.970513 21.1597 0.988761 23.9436 0.989268 26.7913C0.989268 28.1538 2.0108 28.5507 2.45046 28.6584L2.54544 28.6877C2.79685 28.7844 3.04734 28.8307 3.31192 28.8307H13.7417L13.7589 29.6034C13.786 30.8023 13.8263 32.0006 13.867 33.1985C13.9313 35.0832 13.9977 37.032 14.0073 38.9568C14.014 40.2941 15.0092 40.7024 15.4372 40.8162L15.5304 40.8476C15.7847 40.95 16.0465 41 16.3301 41H25.9517C26.5066 41 26.9627 40.8234 27.3092 40.4749L27.4651 40.3205C27.8142 39.9735 27.9911 39.5164 27.9911 38.9605C27.9906 36.0026 27.9701 32.5156 27.8212 29.0898L27.7853 28.2646H39.2534C40.5367 28.2646 41.088 27.3421 41.1775 26.4788L41.1961 26.2987L41.2909 26.1443C41.4824 25.8339 41.5759 25.4901 41.5759 25.0937V14.9058C41.5749 13.8406 40.9593 13.3603 40.441 13.1459Z" fill="#FFCF32"/>
</g>
<defs>
<filter id="filter0_d_16_1590" x="0.424316" y="-1" width="44.1514" height="45" filterUnits="userSpaceOnUse" color-interpolation-filters="sRGB">
<feFlood flood-opacity="0" result="BackgroundImageFix"/>
<feColorMatrix in="SourceAlpha" type="matrix" values="0 0 0 0 0 0 0 0 0 0 0 0 0 0 0 0 0 0 127 0" result="hardAlpha"/>
<feOffset dx="3" dy="3"/>
<feComposite in2="hardAlpha" operator="out"/>
<feColorMatrix type="matrix" values="0 0 0 0 0 0 0 0 0 0 0 0 0 0 0 0 0 0 1 0"/>
<feBlend mode="normal" in2="BackgroundImageFix" result="effect1_dropShadow_16_1590"/>
<feBlend mode="normal" in="SourceGraphic" in2="effect1_dropShadow_16_1590" result="shape"/>
</filter>
</defs>
</svg>
