<svg width="18" height="20" viewBox="0 0 18 20" fill="none" xmlns="http://www.w3.org/2000/svg">
<path fill-rule="evenodd" clip-rule="evenodd" d="M11.6122 9.172C11.5322 9.172 11.4402 9.156 11.3363 9.124C11.2402 9.084 11.1602 9.032 11.0962 8.968C11.0402 8.904 11.0122 8.832 11.0122 8.752C11.0122 8.72 11.0162 8.688 11.0242 8.656L13.4842 0.676003C13.5162 0.556004 13.5922 0.468002 13.7122 0.412003C13.8322 0.356003 13.9602 0.328003 14.0962 0.328003C14.2402 0.328003 14.3722 0.360003 14.4922 0.424004C14.6122 0.480003 14.6882 0.564003 14.7202 0.676003L17.1682 8.656C17.1842 8.688 17.1922 8.716 17.1922 8.74C17.1922 8.82 17.1562 8.892 17.0842 8.956C17.0202 9.02 16.9402 9.072 16.8442 9.112C16.7482 9.152 16.6562 9.172 16.5682 9.172C16.4802 9.172 16.4042 9.156 16.3403 9.124C16.2762 9.084 16.2323 9.024 16.2082 8.944L15.6682 7.156H12.5122L11.9962 8.944C11.9722 9.024 11.9242 9.084 11.8522 9.124C11.7882 9.156 11.7082 9.172 11.6122 9.172ZM15.4402 6.328L14.0962 1.816L12.7522 6.328H15.4402Z" fill="#5F556D"/>
<path d="M3.80824 0.672003C4.01512 0.672003 4.20063 0.799417 4.27491 0.992514L6.77491 7.49251C6.87403 7.75025 6.74546 8.03955 6.48774 8.13868C6.22999 8.23781 5.94068 8.10923 5.84156 7.85149L4.30824 3.86484V19.172C4.30824 19.4481 4.08439 19.672 3.80824 19.672C3.53209 19.672 3.30824 19.4481 3.30824 19.172V3.86484L1.77491 7.85149C1.67579 8.10923 1.38649 8.23781 1.12873 8.13868C0.871013 8.03955 0.742443 7.75025 0.841564 7.49251L3.34156 0.992514C3.41584 0.799417 3.60136 0.672003 3.80824 0.672003Z" fill="#5F556D"/>
<path fill-rule="evenodd" clip-rule="evenodd" d="M11.7802 19.076C11.8682 19.14 11.9802 19.172 12.1163 19.172H14.4562C14.9042 19.172 15.3082 19.092 15.6682 18.932C16.0282 18.772 16.3122 18.512 16.5202 18.152C16.7283 17.784 16.8322 17.292 16.8322 16.676V16.46C16.8322 16.044 16.7802 15.708 16.6763 15.452C16.5722 15.188 16.4282 14.976 16.2442 14.816C16.0603 14.648 15.8442 14.516 15.5962 14.42C15.9082 14.284 16.1562 14.048 16.3403 13.712C16.5242 13.376 16.6163 12.956 16.6163 12.452C16.6163 11.892 16.5043 11.464 16.2802 11.168C16.0643 10.872 15.7682 10.672 15.3922 10.568C15.0242 10.456 14.6203 10.4 14.1802 10.4H12.1163C12.0043 10.4 11.9002 10.432 11.8042 10.496C11.7082 10.552 11.6602 10.64 11.6602 10.76V18.824C11.6602 18.92 11.7002 19.004 11.7802 19.076ZM14.2882 18.26H12.6682V14.84H14.2882C14.7762 14.84 15.1522 14.96 15.4162 15.2C15.6882 15.432 15.8242 15.836 15.8242 16.412V16.616C15.8242 17.184 15.6882 17.6 15.4162 17.864C15.1522 18.128 14.7762 18.26 14.2882 18.26ZM14.1682 14H12.6682V11.312H14.1322C14.4282 11.312 14.6842 11.352 14.9002 11.432C15.1242 11.504 15.2962 11.636 15.4162 11.828C15.5442 12.012 15.6082 12.268 15.6082 12.596C15.6082 13.092 15.4922 13.452 15.2602 13.676C15.0282 13.892 14.6642 14 14.1682 14Z" fill="#5F556D"/>
</svg>
