<svg width="18" height="18" viewBox="0 0 18 18" fill="none" xmlns="http://www.w3.org/2000/svg">
<path d="M16.5453 6.19568L17.1606 9.57177C17.1967 9.76965 17.1868 9.97262 17.1315 10.1665C17.0763 10.3603 16.977 10.5404 16.8407 10.6941C16.7043 10.8478 16.5342 10.9714 16.3423 11.0562C16.1503 11.1411 15.9411 11.1852 15.7293 11.1853H11.2076C11.102 11.1853 10.9978 11.2071 10.902 11.2491C10.8062 11.2911 10.7213 11.3524 10.653 11.4287C10.5847 11.505 10.5348 11.5945 10.5067 11.6909C10.4786 11.7874 10.4729 11.8885 10.4902 11.9872L11.0688 15.3343C11.1627 15.8778 11.1359 16.4338 10.9903 16.9669C10.9279 17.1872 10.8078 17.3889 10.6412 17.5534C10.4746 17.7179 10.2668 17.8398 10.0372 17.9077L9.91066 17.9466C9.62454 18.0338 9.31408 18.0136 9.04314 17.8904C8.7464 17.7547 8.52996 17.5072 8.44967 17.2135L8.03424 15.6959C7.90198 15.213 7.7098 14.7466 7.46171 14.3066C7.09952 13.6636 6.53921 13.1481 5.95622 12.6723L4.70033 11.6462C4.5261 11.5035 4.39002 11.3236 4.30325 11.1214C4.21647 10.9192 4.18147 10.7003 4.20111 10.4828L4.90979 2.71037C4.94102 2.36663 5.10706 2.04649 5.37513 1.81316C5.64319 1.57984 5.99379 1.4503 6.35768 1.45013H10.4142C13.4532 1.45013 16.0461 3.45758 16.5453 6.19568Z" fill="#FCFAFA"/>
<path fill-rule="evenodd" clip-rule="evenodd" d="M1.44506 11.806C1.61373 11.813 1.77873 11.758 1.90558 11.6523C2.03244 11.5467 2.11134 11.3987 2.12581 11.2392L2.97238 1.94174C2.98672 1.80329 2.97114 1.66351 2.9266 1.53096C2.88205 1.39841 2.80947 1.27585 2.7133 1.17079C2.61712 1.06572 2.49936 0.980341 2.36722 0.91987C2.23507 0.8594 2.09131 0.825104 1.94472 0.819078C1.79812 0.813052 1.65177 0.835423 1.5146 0.884824C1.37743 0.934224 1.25232 1.00962 1.14691 1.1064C1.04151 1.20318 0.958014 1.31932 0.901536 1.44772C0.845058 1.57612 0.816779 1.71409 0.818428 1.8532V11.1863C0.818499 11.3462 0.883715 11.5 1.00047 11.6155C1.11722 11.7309 1.2765 11.7992 1.44506 11.806Z" fill="#FCFAFA"/>
</svg>
