<svg width="18" height="18" viewBox="0 0 18 18" fill="none" xmlns="http://www.w3.org/2000/svg">
<path d="M16.5453 11.8043L17.1606 8.42823C17.1967 8.23035 17.1868 8.02738 17.1315 7.83352C17.0763 7.63966 16.977 7.45959 16.8407 7.3059C16.7043 7.15221 16.5342 7.02862 16.3423 6.94377C16.1503 6.85891 15.9411 6.81485 15.7293 6.81465H11.2076C11.102 6.81467 10.9978 6.79291 10.902 6.75088C10.8062 6.70885 10.7213 6.64756 10.653 6.57126C10.5847 6.49496 10.5348 6.40549 10.5067 6.30906C10.4786 6.21262 10.4729 6.11154 10.4902 6.01283L11.0688 2.6657C11.1627 2.12225 11.1359 1.56619 10.9903 1.0331C10.9279 0.812825 10.8078 0.61107 10.6412 0.446581C10.4746 0.282093 10.2668 0.16021 10.0372 0.0922604L9.91066 0.053369C9.62454 -0.0337723 9.31408 -0.0136353 9.04314 0.109637C8.7464 0.245343 8.52996 0.492757 8.44967 0.78651L8.03424 2.3041C7.90198 2.78703 7.7098 3.2534 7.46171 3.69342C7.09952 4.33637 6.53921 4.85189 5.95622 5.32768L4.70033 6.35375C4.5261 6.4965 4.39002 6.67635 4.30325 6.87858C4.21647 7.08081 4.18147 7.29965 4.20111 7.51718L4.90979 15.2896C4.94102 15.6334 5.10706 15.9535 5.37513 16.1868C5.64319 16.4202 5.99379 16.5497 6.35768 16.5499H10.4142C13.4532 16.5499 16.0461 14.5424 16.5453 11.8043Z" fill="#FCFAFA"/>
<path fill-rule="evenodd" clip-rule="evenodd" d="M1.44506 6.19395C1.61373 6.18696 1.77873 6.24203 1.90558 6.34765C2.03244 6.45328 2.11134 6.60129 2.12581 6.76077L2.97238 16.0583C2.98672 16.1967 2.97114 16.3365 2.9266 16.469C2.88205 16.6016 2.80947 16.7241 2.7133 16.8292C2.61712 16.9343 2.49936 17.0197 2.36722 17.0801C2.23507 17.1406 2.09131 17.1749 1.94472 17.1809C1.79812 17.1869 1.65177 17.1646 1.5146 17.1152C1.37743 17.0658 1.25232 16.9904 1.14691 16.8936C1.04151 16.7968 0.958014 16.6807 0.901536 16.5523C0.845058 16.4239 0.816779 16.2859 0.818428 16.1468V6.81373C0.818499 6.65377 0.883715 6.5 1.00047 6.38453C1.11722 6.26905 1.2765 6.20078 1.44506 6.19395Z" fill="#FCFAFA"/>
</svg>
