<svg width="18" height="18" viewBox="0 0 18 18" fill="none" xmlns="http://www.w3.org/2000/svg">
<path d="M0.825851 1.03257C0.99936 0.919891 1.22434 0.925709 1.3918 1.0472L7.02863 5.13697C7.25214 5.29913 7.30187 5.61178 7.1397 5.83529C6.97753 6.0588 6.66488 6.10853 6.44137 5.94637L2.98413 3.43799L11.321 16.2757C11.4714 16.5072 11.4056 16.8169 11.174 16.9673C10.9424 17.1177 10.6327 17.0519 10.4823 16.8203L2.14546 3.98263L3.03079 8.16122C3.08802 8.43137 2.91543 8.69677 2.64528 8.754C2.37514 8.81124 2.10974 8.63864 2.05251 8.3685L0.609029 1.55554C0.566147 1.35315 0.652342 1.14525 0.825851 1.03257Z" fill="#5F556D"/>
<path d="M17.174 1.03257C17.0005 0.919891 16.7755 0.925709 16.608 1.0472L10.9712 5.13697C10.7477 5.29913 10.698 5.61178 10.8601 5.83529C11.0223 6.0588 11.3349 6.10853 11.5585 5.94637L15.0157 3.43799L6.67882 16.2757C6.52843 16.5072 6.59425 16.8169 6.82584 16.9673C7.05743 17.1177 7.3671 17.0519 7.51749 16.8203L15.8544 3.98263L14.969 8.16122C14.9118 8.43137 15.0844 8.69677 15.3545 8.754C15.6247 8.81124 15.8901 8.63864 15.9473 8.3685L17.3908 1.55554C17.4337 1.35315 17.3475 1.14525 17.174 1.03257Z" fill="#5F556D"/>
</svg>
